<svg id="svg" version="1.1" xmlns="http://www.w3.org/2000/svg" xmlns:xlink="http://www.w3.org/1999/xlink" width="100%" height="100%" viewBox="0, 0, 400, 400"><g id="svgg"><path id="path0" d="M221.287 37.974 C 214.922 39.538,213.838 40.744,214.955 45.022 C 215.673 47.770,217.183 49.495,219.170 49.835 C 219.957 49.969,221.664 50.344,222.964 50.667 C 225.756 51.361,227.068 51.127,227.659 49.829 C 228.174 48.699,235.543 48.730,236.850 49.868 C 241.311 53.750,242.479 46.645,238.667 38.817 C 237.800 37.037,227.194 36.523,221.287 37.974 M195.200 47.569 C 193.990 47.734,189.760 47.905,185.800 47.949 C 181.840 47.994,177.955 48.203,177.166 48.413 C 176.378 48.623,174.201 49.062,172.329 49.389 C 167.032 50.312,158.070 53.965,154.510 56.652 C 153.801 57.187,151.821 58.359,150.110 59.256 C 148.400 60.152,146.370 61.467,145.600 62.178 C 144.830 62.888,142.580 64.748,140.600 66.311 C 135.767 70.127,127.633 79.976,127.608 82.043 C 127.603 82.396,126.609 84.646,125.398 87.043 C 122.549 92.682,121.716 94.938,120.770 99.587 C 120.343 101.684,119.637 104.300,119.202 105.400 C 118.766 106.500,117.861 109.560,117.191 112.200 C 116.521 114.840,115.619 117.843,115.186 118.874 C 114.098 121.468,114.039 127.912,115.100 128.245 C 115.485 128.366,116.540 128.810,117.444 129.232 C 118.348 129.655,119.397 130.000,119.776 130.000 C 120.155 130.000,122.655 130.539,125.332 131.197 C 128.010 131.856,131.010 132.583,132.000 132.814 C 133.736 133.218,137.291 134.629,143.600 137.416 C 152.179 141.206,152.965 139.881,153.809 120.200 C 154.095 113.529,155.229 107.636,157.195 102.600 C 158.336 99.677,158.855 97.616,159.123 94.943 C 159.459 91.595,159.644 91.037,161.320 88.343 C 162.327 86.724,163.334 84.914,163.558 84.319 C 163.782 83.725,164.457 82.465,165.058 81.519 C 165.658 80.574,167.265 76.973,168.627 73.517 C 172.472 63.763,173.891 62.007,179.238 60.389 C 180.529 59.998,182.888 58.927,184.481 58.008 C 186.074 57.090,188.270 56.110,189.360 55.831 C 190.507 55.537,191.826 54.841,192.486 54.180 C 193.446 53.221,194.184 52.957,197.086 52.533 C 200.746 51.998,201.390 51.644,201.809 49.932 C 202.294 47.951,199.568 46.976,195.200 47.569 M208.176 52.658 C 203.465 55.549,202.321 56.098,198.292 57.403 C 191.483 59.609,188.511 60.717,185.444 62.192 C 183.833 62.966,182.306 63.600,182.049 63.600 C 177.668 63.600,168.715 80.996,166.751 93.325 C 166.291 96.211,165.516 99.395,164.977 100.614 C 164.450 101.805,163.659 104.539,163.218 106.689 C 162.777 108.840,161.871 113.210,161.203 116.400 C 159.331 125.350,158.800 129.648,158.800 135.862 L 158.800 141.584 160.500 142.437 C 161.435 142.906,163.134 143.987,164.275 144.839 C 165.416 145.691,167.396 146.849,168.675 147.412 C 169.954 147.976,172.170 149.131,173.600 149.980 C 175.030 150.828,176.647 151.655,177.194 151.818 C 177.741 151.981,178.821 152.608,179.594 153.213 C 180.367 153.818,181.720 154.531,182.600 154.797 C 183.480 155.064,185.326 155.819,186.703 156.476 C 188.080 157.132,191.029 158.194,193.257 158.835 C 198.494 160.343,205.209 163.348,206.611 164.812 C 207.217 165.444,208.238 166.077,208.880 166.218 C 209.522 166.359,211.349 167.075,212.940 167.810 C 214.531 168.545,218.345 169.776,221.416 170.544 C 224.487 171.313,228.292 172.494,229.872 173.168 C 231.452 173.843,233.972 174.573,235.472 174.790 C 240.379 175.500,244.239 176.348,246.353 177.181 C 247.495 177.632,248.866 178.000,249.400 178.000 C 249.933 178.000,251.771 178.448,253.485 178.995 C 260.212 181.143,261.800 180.282,263.801 173.400 C 264.185 172.080,265.190 169.020,266.034 166.600 C 267.948 161.115,271.429 147.475,271.802 144.000 C 271.955 142.570,272.592 139.834,273.216 137.920 C 273.841 136.006,274.532 133.396,274.753 132.120 C 274.974 130.844,275.447 128.158,275.804 126.151 C 276.672 121.282,276.681 115.360,275.827 111.600 C 275.452 109.950,274.989 106.530,274.797 104.000 C 274.465 99.622,273.418 95.546,271.559 91.400 C 270.123 88.197,266.215 81.266,265.245 80.200 C 264.644 79.540,263.691 78.280,263.127 77.400 C 261.638 75.077,257.485 70.678,255.192 68.994 C 254.101 68.193,252.892 66.995,252.504 66.330 C 252.109 65.652,250.923 64.678,249.800 64.108 C 248.700 63.551,247.234 62.600,246.542 61.996 C 245.850 61.392,244.455 60.582,243.442 60.195 C 241.664 59.516,241.418 59.232,241.581 58.052 C 241.986 55.131,240.920 54.795,231.600 54.907 C 223.113 55.008,218.970 54.356,214.091 52.153 C 211.333 50.907,210.982 50.937,208.176 52.658 M247.339 51.907 C 244.617 52.345,245.279 54.739,248.742 56.977 C 250.204 57.923,252.781 59.934,254.470 61.448 C 256.158 62.962,258.830 65.070,260.407 66.133 C 261.985 67.196,263.573 68.606,263.937 69.266 C 264.302 69.927,265.680 72.027,267.000 73.933 C 268.320 75.840,270.277 78.840,271.348 80.600 C 272.419 82.360,274.240 85.060,275.394 86.600 C 277.124 88.910,277.754 90.240,278.990 94.200 L 280.489 99.000 280.443 117.800 L 280.397 136.600 277.633 142.200 C 275.445 146.631,274.822 148.301,274.649 150.200 C 274.528 151.520,273.864 154.220,273.173 156.200 C 272.482 158.180,271.475 161.330,270.936 163.200 C 270.396 165.070,269.425 168.274,268.777 170.320 C 268.130 172.366,267.600 174.300,267.600 174.619 C 267.600 174.937,267.039 176.385,266.353 177.837 C 264.949 180.808,265.013 181.247,267.200 183.738 C 268.066 184.725,268.921 185.249,269.931 185.410 C 270.739 185.539,272.960 186.011,274.866 186.458 C 277.876 187.166,278.614 187.210,280.477 186.792 C 282.240 186.398,283.299 186.425,286.411 186.942 C 291.665 187.815,308.260 188.232,313.200 187.615 C 315.290 187.354,318.216 187.012,319.701 186.855 C 321.312 186.684,322.661 186.311,323.041 185.930 C 324.658 184.313,325.914 171.567,326.175 154.112 C 326.265 148.123,326.445 143.051,326.575 142.840 C 327.699 141.021,326.453 127.118,324.617 121.000 C 323.891 118.580,323.170 115.430,323.016 114.000 C 322.861 112.570,322.397 109.960,321.985 108.200 C 321.572 106.440,321.109 104.190,320.957 103.200 C 320.805 102.210,320.273 100.500,319.775 99.400 C 315.267 89.443,312.618 85.282,306.200 78.076 C 304.660 76.347,303.093 74.363,302.719 73.666 C 302.176 72.657,301.782 72.400,300.779 72.400 C 299.831 72.400,299.185 72.029,298.167 70.900 C 295.148 67.552,294.360 66.870,292.521 66.008 C 291.465 65.513,289.160 64.114,287.400 62.899 C 284.467 60.875,283.949 60.663,281.200 60.365 C 277.713 59.988,273.382 58.824,269.407 57.196 C 258.615 52.778,255.582 51.854,252.856 52.158 C 251.615 52.296,250.060 52.265,249.400 52.089 C 248.740 51.912,247.813 51.831,247.339 51.907 M102.200 135.071 C 101.320 135.146,98.440 135.573,95.800 136.021 C 93.160 136.468,89.920 137.004,88.600 137.211 C 84.571 137.843,76.238 138.400,70.799 138.400 C 66.353 138.400,65.186 138.544,62.344 139.442 C 60.530 140.015,57.146 140.895,54.823 141.399 C 52.500 141.903,48.439 142.941,45.798 143.706 C 43.157 144.471,40.187 145.222,39.198 145.375 C 29.858 146.824,23.932 152.020,27.378 155.739 C 28.335 156.771,28.436 156.789,31.913 156.542 C 35.439 156.292,35.909 156.340,52.486 158.641 C 54.843 158.968,58.083 159.389,59.686 159.577 C 72.530 161.082,89.866 164.739,98.000 167.661 C 99.870 168.332,103.830 169.584,106.800 170.443 C 109.770 171.303,112.881 172.275,113.712 172.604 C 118.067 174.329,126.047 178.302,127.800 179.618 C 129.801 181.120,134.759 184.204,140.400 187.455 C 144.240 189.669,145.734 191.089,146.971 193.698 C 147.992 195.854,148.147 195.993,156.000 201.774 C 157.650 202.988,160.530 204.746,162.400 205.679 C 164.270 206.612,166.250 207.674,166.800 208.040 C 168.155 208.939,174.759 211.694,178.200 212.795 C 179.740 213.287,182.350 214.284,184.000 215.009 C 190.374 217.810,214.964 218.404,219.855 215.875 C 220.494 215.545,222.075 215.079,223.370 214.839 C 224.891 214.558,227.118 213.625,229.670 212.200 C 231.841 210.987,235.626 209.089,238.080 207.982 C 243.218 205.663,247.703 202.973,249.413 201.183 C 251.324 199.183,254.724 197.387,258.800 196.225 C 267.296 193.803,269.192 191.214,264.992 187.772 C 262.871 186.034,260.305 185.202,257.036 185.193 C 255.696 185.189,253.250 184.832,251.600 184.400 C 249.950 183.968,248.071 183.611,247.424 183.607 C 246.538 183.602,245.799 183.120,244.424 181.649 C 242.338 179.417,241.041 178.675,238.160 178.066 C 237.039 177.829,233.349 176.713,229.960 175.588 C 225.215 174.011,222.513 173.370,218.200 172.799 C 210.031 171.716,207.066 170.998,205.204 169.649 C 204.320 169.008,200.762 167.358,197.298 165.981 C 193.834 164.605,188.660 162.362,185.800 160.999 C 182.940 159.635,179.700 158.301,178.600 158.035 C 176.284 157.473,167.644 152.873,165.700 151.166 C 164.102 149.763,161.882 148.602,160.033 148.202 C 157.428 147.639,147.394 144.522,146.200 143.904 C 134.389 137.795,115.274 133.958,102.200 135.071 M25.600 161.650 C 21.377 162.790,20.370 165.369,23.133 167.961 C 23.977 168.753,25.083 170.154,25.593 171.075 C 27.371 174.289,30.182 175.687,38.000 177.242 C 40.090 177.658,43.160 178.270,44.822 178.602 C 48.723 179.381,56.257 180.094,57.575 179.809 C 58.139 179.687,62.560 179.311,67.400 178.972 C 85.027 177.741,86.648 177.610,89.400 177.191 C 92.435 176.730,97.710 174.540,97.485 173.835 C 97.261 173.135,93.526 170.814,92.000 170.426 C 82.112 167.916,67.335 164.802,65.277 164.795 C 64.465 164.792,61.820 164.426,59.400 163.981 C 56.980 163.537,54.100 163.014,53.000 162.818 C 51.900 162.623,49.650 162.179,48.000 161.832 C 44.593 161.115,28.079 160.981,25.600 161.650 " stroke="none" fill="#11f80d" fill-rule="evenodd"></path><path id="path1" d="M226.400 31.215 C 221.193 31.559,216.411 32.681,213.251 34.299 C 211.063 35.420,210.667 35.938,208.896 40.000 L 208.111 41.800 197.955 41.858 C 192.370 41.890,186.358 42.129,184.596 42.390 C 182.834 42.651,179.414 42.899,176.996 42.943 C 171.859 43.035,162.003 45.482,154.487 48.531 C 153.104 49.092,150.944 49.847,149.687 50.209 C 148.429 50.571,146.950 51.282,146.400 51.789 C 145.850 52.297,144.320 53.300,143.000 54.020 C 141.680 54.739,140.060 55.808,139.400 56.395 C 138.740 56.982,137.078 58.288,135.707 59.296 C 133.155 61.173,129.095 65.894,127.658 68.655 C 127.216 69.505,126.101 71.100,125.180 72.200 C 122.125 75.851,116.749 87.925,115.029 95.000 C 114.655 96.540,113.820 99.339,113.174 101.219 C 112.528 103.100,111.994 105.080,111.986 105.619 C 111.979 106.159,111.432 107.950,110.772 109.600 C 108.935 114.192,108.000 119.330,108.000 124.836 C 108.000 129.434,107.972 129.591,107.100 129.785 C 106.605 129.896,104.969 130.260,103.463 130.596 C 101.958 130.931,98.898 131.380,96.663 131.593 C 94.429 131.806,91.250 132.170,89.600 132.403 C 87.950 132.635,82.820 132.986,78.200 133.182 C 73.071 133.401,68.943 133.774,67.600 134.141 C 64.416 135.012,59.820 135.952,56.600 136.393 C 55.060 136.604,52.900 137.043,51.800 137.369 C 50.700 137.695,48.234 138.154,46.321 138.390 C 41.231 139.015,33.456 142.077,30.473 144.631 C 29.638 145.345,27.704 146.603,26.177 147.425 C 22.550 149.378,19.313 152.493,18.754 154.570 C 18.521 155.436,17.896 156.785,17.365 157.566 C 15.944 159.657,15.899 168.402,17.300 170.304 C 23.319 178.476,25.351 180.392,31.200 183.414 C 31.750 183.698,34.180 184.136,36.600 184.388 C 39.020 184.639,42.440 185.215,44.200 185.668 C 48.519 186.779,54.843 186.764,59.896 185.630 C 67.402 183.945,67.785 184.649,63.100 191.521 C 62.055 193.053,61.200 194.483,61.200 194.698 C 61.200 194.913,60.721 195.788,60.136 196.644 C 55.384 203.592,50.958 216.860,50.009 227.002 C 49.568 231.720,48.721 237.483,48.040 240.400 C 46.983 244.925,47.835 263.470,49.369 269.351 C 49.936 271.524,50.400 273.806,50.400 274.421 C 50.400 275.507,52.172 280.363,53.603 283.200 C 53.992 283.970,55.047 286.560,55.948 288.955 C 57.782 293.828,59.406 296.227,63.925 300.742 C 65.544 302.360,67.480 304.484,68.227 305.463 C 71.121 309.254,75.391 313.578,76.476 313.817 C 77.080 313.949,78.220 314.496,79.010 315.033 C 79.800 315.569,81.111 316.352,81.923 316.773 C 82.735 317.194,84.660 318.826,86.200 320.400 C 87.740 321.974,89.675 323.611,90.500 324.039 C 91.326 324.467,93.237 325.616,94.747 326.593 C 96.257 327.570,98.379 328.719,99.463 329.146 C 100.546 329.573,102.235 330.366,103.216 330.908 C 104.197 331.450,106.488 332.371,108.308 332.955 C 110.127 333.539,112.487 334.553,113.552 335.208 C 114.617 335.864,115.664 336.400,115.879 336.400 C 116.094 336.400,117.286 337.128,118.528 338.017 C 120.046 339.104,122.462 340.206,125.893 341.377 C 128.702 342.335,133.700 344.111,137.000 345.323 C 143.444 347.691,149.162 348.788,155.184 348.812 C 158.595 348.826,168.483 349.772,172.400 350.459 C 176.939 351.256,217.897 350.840,237.400 349.799 C 242.369 349.534,249.440 347.981,256.000 345.714 C 257.650 345.144,260.170 344.369,261.600 343.992 C 264.022 343.353,269.371 341.767,277.000 339.426 C 278.760 338.886,280.650 338.326,281.200 338.181 C 281.750 338.036,283.566 337.126,285.235 336.158 C 286.904 335.191,288.638 334.400,289.088 334.400 C 290.773 334.400,295.440 332.281,298.368 330.187 C 306.638 324.272,312.927 319.202,314.441 317.231 C 315.188 316.257,318.500 312.727,321.800 309.385 C 325.705 305.430,328.622 302.068,330.154 299.755 C 331.448 297.800,332.817 295.747,333.196 295.194 C 337.603 288.759,340.977 278.265,341.618 269.000 C 341.831 265.920,342.177 262.050,342.385 260.400 C 343.418 252.236,342.166 223.984,340.389 215.348 C 339.347 210.284,337.104 202.678,335.036 197.200 C 331.060 186.663,331.126 187.792,333.802 176.200 C 334.690 172.353,334.727 171.517,334.755 154.400 C 334.803 124.760,333.663 118.391,324.407 96.563 C 323.559 94.563,322.649 91.826,322.384 90.482 C 321.850 87.765,319.595 84.478,314.551 79.063 C 313.085 77.488,310.934 74.846,309.772 73.191 C 308.337 71.146,307.106 69.874,305.930 69.224 C 304.979 68.697,303.609 67.757,302.886 67.133 C 302.163 66.510,301.376 66.000,301.136 66.000 C 300.501 66.000,294.446 63.228,292.733 62.153 C 291.927 61.646,290.064 60.844,288.594 60.369 C 287.123 59.894,283.553 58.289,280.660 56.802 C 277.727 55.295,274.190 53.806,272.664 53.436 C 271.159 53.071,268.639 52.028,267.064 51.117 C 262.503 48.481,261.534 48.044,259.200 47.568 C 257.990 47.321,256.280 46.965,255.400 46.777 C 254.520 46.589,252.990 46.426,252.000 46.415 C 248.656 46.379,247.200 45.743,247.200 44.318 C 247.200 43.633,246.509 41.527,245.663 39.637 C 244.818 37.747,243.922 35.705,243.672 35.099 C 242.372 31.957,236.195 30.568,226.400 31.215 M237.194 37.556 C 238.308 37.867,238.759 38.643,240.014 42.400 C 242.236 49.058,240.535 53.074,236.850 49.868 C 235.543 48.730,228.174 48.699,227.659 49.829 C 227.068 51.127,225.756 51.361,222.964 50.667 C 221.664 50.344,219.957 49.969,219.170 49.835 C 214.667 49.065,212.875 41.170,216.800 39.400 C 220.945 37.531,233.142 36.428,237.194 37.556 M200.645 48.022 C 203.888 49.592,201.761 52.084,196.757 52.577 C 194.399 52.809,193.762 53.043,192.612 54.099 C 191.847 54.800,190.404 55.564,189.315 55.842 C 188.249 56.115,186.074 57.090,184.481 58.008 C 182.888 58.927,180.529 59.998,179.238 60.389 C 173.891 62.007,172.472 63.763,168.627 73.517 C 167.265 76.973,165.658 80.574,165.058 81.519 C 164.457 82.465,163.782 83.725,163.558 84.319 C 163.334 84.914,162.327 86.724,161.320 88.343 C 159.644 91.037,159.459 91.595,159.123 94.943 C 158.855 97.616,158.336 99.677,157.195 102.600 C 155.229 107.636,154.095 113.529,153.809 120.200 C 152.965 139.881,152.179 141.206,143.600 137.416 C 137.291 134.629,133.736 133.218,132.000 132.814 C 131.010 132.583,128.010 131.856,125.332 131.197 C 122.655 130.539,120.133 130.000,119.726 130.000 C 119.320 130.000,118.316 129.640,117.496 129.200 C 116.675 128.760,115.642 128.400,115.201 128.400 C 114.124 128.400,114.009 121.677,115.045 119.287 C 115.694 117.790,117.552 111.242,120.448 100.249 C 122.053 94.157,123.287 90.951,126.037 85.730 C 126.897 84.098,127.603 82.456,127.608 82.081 C 127.618 81.207,131.295 75.882,134.506 72.093 C 136.538 69.695,141.827 65.037,146.938 61.144 C 153.649 56.032,165.379 50.608,172.366 49.384 C 174.218 49.060,176.378 48.623,177.166 48.413 C 177.955 48.203,181.840 47.994,185.800 47.949 C 189.760 47.905,193.990 47.741,195.200 47.586 C 198.680 47.141,198.854 47.155,200.645 48.022 M214.091 52.153 C 218.970 54.356,223.113 55.008,231.600 54.907 C 240.920 54.795,241.986 55.131,241.581 58.052 C 241.418 59.232,241.664 59.516,243.442 60.195 C 244.455 60.582,245.850 61.392,246.542 61.996 C 247.234 62.600,248.700 63.551,249.800 64.108 C 250.923 64.678,252.109 65.652,252.504 66.330 C 252.892 66.995,254.101 68.193,255.192 68.994 C 257.485 70.678,261.638 75.077,263.127 77.400 C 263.691 78.280,264.644 79.540,265.245 80.200 C 266.215 81.266,270.123 88.197,271.559 91.400 C 273.418 95.546,274.465 99.622,274.797 104.000 C 274.989 106.530,275.452 109.950,275.828 111.600 C 276.662 115.266,276.673 121.476,275.855 125.855 C 275.531 127.585,275.048 130.347,274.780 131.993 C 274.513 133.639,273.860 136.140,273.329 137.549 C 272.799 138.959,272.116 141.842,271.813 143.956 C 271.118 148.802,268.048 160.831,266.035 166.600 C 265.190 169.020,264.185 172.080,263.801 173.400 C 261.800 180.282,260.212 181.143,253.485 178.995 C 251.771 178.448,249.933 178.000,249.400 178.000 C 248.866 178.000,247.495 177.632,246.353 177.181 C 244.239 176.348,240.379 175.500,235.472 174.790 C 233.972 174.573,231.452 173.843,229.872 173.168 C 228.292 172.494,224.487 171.313,221.416 170.544 C 218.345 169.776,214.531 168.545,212.940 167.810 C 211.349 167.075,209.522 166.359,208.880 166.218 C 208.238 166.077,207.217 165.444,206.611 164.812 C 205.209 163.348,198.494 160.343,193.257 158.835 C 191.029 158.194,188.080 157.132,186.703 156.476 C 185.326 155.819,183.480 155.064,182.600 154.797 C 181.720 154.531,180.367 153.818,179.594 153.213 C 178.821 152.608,177.741 151.981,177.194 151.818 C 176.647 151.655,175.030 150.828,173.600 149.980 C 172.170 149.131,169.954 147.976,168.675 147.412 C 167.396 146.849,165.416 145.691,164.275 144.839 C 163.134 143.987,161.435 142.906,160.500 142.437 L 158.800 141.584 158.800 135.862 C 158.800 129.648,159.331 125.350,161.203 116.400 C 161.871 113.210,162.777 108.840,163.218 106.689 C 163.659 104.539,164.450 101.805,164.977 100.614 C 165.516 99.395,166.291 96.211,166.751 93.325 C 168.715 80.996,177.668 63.600,182.049 63.600 C 182.306 63.600,183.833 62.966,185.444 62.192 C 188.511 60.717,191.483 59.609,198.292 57.403 C 202.321 56.098,203.465 55.549,208.176 52.658 C 210.982 50.937,211.333 50.907,214.091 52.153 M252.856 52.158 C 255.582 51.854,258.615 52.778,269.407 57.196 C 273.382 58.824,277.713 59.988,281.200 60.365 C 283.949 60.663,284.467 60.875,287.400 62.899 C 289.160 64.114,291.471 65.516,292.536 66.015 C 294.437 66.905,295.989 68.265,298.022 70.817 C 298.742 71.722,299.506 72.176,300.612 72.355 C 301.901 72.565,302.336 72.887,303.052 74.165 C 303.532 75.020,305.344 77.268,307.079 79.160 C 311.379 83.849,316.261 90.677,317.165 93.265 C 317.575 94.439,318.535 96.750,319.297 98.400 C 320.060 100.050,320.808 102.210,320.959 103.200 C 321.110 104.190,321.572 106.440,321.985 108.200 C 322.397 109.960,322.861 112.570,323.016 114.000 C 323.170 115.430,323.891 118.580,324.617 121.000 C 326.453 127.118,327.699 141.021,326.575 142.840 C 326.445 143.051,326.265 148.123,326.175 154.112 C 325.914 171.567,324.658 184.313,323.041 185.930 C 322.661 186.311,321.312 186.684,319.701 186.855 C 318.216 187.012,315.290 187.354,313.200 187.615 C 308.260 188.232,291.665 187.815,286.411 186.942 C 283.299 186.425,282.240 186.398,280.477 186.792 C 278.614 187.210,277.876 187.166,274.866 186.458 C 272.960 186.011,270.739 185.539,269.931 185.410 C 268.921 185.249,268.066 184.725,267.200 183.738 C 265.013 181.247,264.949 180.808,266.353 177.837 C 267.039 176.385,267.600 174.937,267.600 174.619 C 267.600 174.300,268.130 172.366,268.777 170.320 C 269.425 168.274,270.396 165.070,270.936 163.200 C 271.475 161.330,272.482 158.180,273.173 156.200 C 273.864 154.220,274.528 151.520,274.649 150.200 C 274.822 148.301,275.445 146.631,277.633 142.200 L 280.397 136.600 280.443 117.800 L 280.489 99.000 278.990 94.200 C 277.754 90.240,277.124 88.910,275.394 86.600 C 274.240 85.060,272.419 82.360,271.348 80.600 C 270.277 78.840,268.320 75.840,267.000 73.933 C 265.680 72.027,264.302 69.927,263.937 69.266 C 263.573 68.606,261.985 67.196,260.407 66.133 C 258.830 65.070,256.158 62.962,254.470 61.448 C 252.781 59.934,250.204 57.923,248.742 56.977 C 245.558 54.919,245.386 54.682,246.001 53.199 C 246.528 51.925,247.544 51.593,249.400 52.089 C 250.060 52.265,251.615 52.296,252.856 52.158 M120.177 135.832 C 123.050 136.399,126.930 137.225,128.800 137.667 C 132.056 138.436,143.692 142.607,146.200 143.904 C 147.394 144.522,157.428 147.639,160.033 148.202 C 161.882 148.602,164.102 149.763,165.700 151.166 C 167.644 152.873,176.284 157.473,178.600 158.035 C 179.700 158.301,182.940 159.635,185.800 160.999 C 188.660 162.362,193.834 164.605,197.298 165.981 C 200.762 167.358,204.320 169.008,205.204 169.649 C 207.066 170.998,210.031 171.716,218.200 172.799 C 222.513 173.370,225.215 174.011,229.960 175.588 C 233.349 176.713,237.039 177.829,238.160 178.066 C 241.041 178.675,242.338 179.417,244.424 181.649 C 245.799 183.120,246.538 183.602,247.424 183.607 C 248.071 183.611,249.950 183.968,251.600 184.400 C 253.250 184.832,255.696 185.189,257.036 185.193 C 260.305 185.202,262.871 186.034,264.992 187.772 C 269.192 191.214,267.296 193.803,258.800 196.225 C 254.724 197.387,251.324 199.183,249.413 201.183 C 247.703 202.973,243.218 205.663,238.080 207.982 C 235.626 209.089,231.841 210.987,229.670 212.200 C 227.118 213.625,224.891 214.558,223.370 214.839 C 222.075 215.079,220.495 215.544,219.859 215.873 C 219.222 216.202,217.149 216.622,215.251 216.805 C 213.353 216.988,209.820 217.338,207.400 217.581 C 200.338 218.293,188.514 216.993,184.000 215.009 C 182.350 214.284,179.740 213.287,178.200 212.795 C 174.759 211.694,168.155 208.939,166.800 208.040 C 166.250 207.674,164.270 206.612,162.400 205.679 C 160.530 204.746,157.650 202.988,156.000 201.774 C 148.147 195.993,147.992 195.854,146.971 193.698 C 145.734 191.089,144.240 189.669,140.400 187.455 C 134.759 184.204,129.801 181.120,127.800 179.618 C 126.047 178.302,118.067 174.329,113.712 172.604 C 112.881 172.275,109.770 171.303,106.800 170.443 C 103.830 169.584,99.870 168.332,98.000 167.661 C 89.866 164.739,72.530 161.082,59.686 159.577 C 58.083 159.389,54.843 158.968,52.486 158.641 C 35.796 156.324,35.470 156.291,31.769 156.551 L 28.063 156.812 27.231 155.644 C 24.354 151.603,29.938 146.812,39.198 145.375 C 40.187 145.222,43.157 144.471,45.798 143.706 C 48.439 142.941,52.500 141.903,54.823 141.399 C 57.146 140.895,60.530 140.015,62.344 139.442 C 65.186 138.544,66.353 138.400,70.799 138.400 C 76.238 138.400,84.571 137.843,88.600 137.211 C 89.920 137.004,93.160 136.468,95.800 136.021 C 105.124 134.440,112.829 134.380,120.177 135.832 M48.000 161.832 C 49.650 162.179,51.900 162.623,53.000 162.818 C 54.100 163.014,56.980 163.537,59.400 163.981 C 61.820 164.426,64.465 164.792,65.277 164.795 C 67.335 164.802,82.112 167.916,92.000 170.426 C 93.526 170.814,97.261 173.135,97.485 173.835 C 97.980 175.388,90.392 177.347,81.400 177.987 C 78.540 178.191,72.150 178.678,67.200 179.070 C 56.478 179.918,50.992 179.905,46.400 179.023 C 44.530 178.664,41.470 178.118,39.600 177.811 C 37.730 177.503,35.169 176.880,33.910 176.426 C 32.650 175.972,31.392 175.600,31.113 175.600 C 30.017 175.600,26.512 172.737,25.609 171.103 C 25.091 170.166,23.977 168.753,23.133 167.961 C 20.370 165.369,21.377 162.790,25.600 161.650 C 28.079 160.981,44.593 161.115,48.000 161.832 M104.561 179.639 C 108.356 180.104,117.276 182.926,120.161 184.574 C 121.063 185.089,122.731 185.810,123.869 186.177 C 125.997 186.863,129.326 189.168,134.150 193.295 C 135.663 194.589,137.373 195.949,137.950 196.318 C 138.528 196.688,140.117 197.928,141.483 199.076 C 142.848 200.223,144.481 201.428,145.112 201.754 C 145.742 202.080,146.507 202.647,146.812 203.014 C 147.116 203.381,148.331 204.299,149.511 205.054 C 150.692 205.809,152.590 207.167,153.729 208.071 C 154.868 208.975,157.510 210.523,159.600 211.510 C 161.690 212.497,164.570 213.985,166.000 214.816 C 167.430 215.647,169.215 216.455,169.966 216.610 C 170.717 216.765,172.484 217.410,173.894 218.042 C 176.895 219.389,181.774 220.890,186.000 221.766 C 195.397 223.716,195.780 223.761,203.000 223.743 C 211.260 223.722,216.244 222.891,221.800 220.607 C 223.560 219.884,227.430 218.472,230.400 217.470 C 236.082 215.552,245.092 211.258,247.548 209.297 C 249.076 208.077,256.612 203.300,261.470 200.471 C 263.408 199.342,264.812 198.800,265.794 198.800 C 267.247 198.800,273.234 197.153,281.257 194.546 C 285.505 193.166,285.524 193.163,289.457 193.590 C 291.626 193.825,297.396 194.131,302.280 194.270 C 311.232 194.525,312.808 194.407,322.367 192.771 C 325.532 192.229,325.481 192.208,326.897 194.619 C 328.955 198.122,329.015 198.267,331.174 204.800 C 334.629 215.258,334.826 216.634,335.077 232.027 C 335.277 244.261,335.234 245.573,334.601 246.799 C 334.104 247.760,333.814 249.706,333.585 253.617 C 332.995 263.718,332.058 267.438,327.794 276.600 C 327.078 278.140,326.079 280.390,325.575 281.600 C 325.070 282.810,324.357 284.250,323.990 284.800 C 323.623 285.350,323.114 286.414,322.859 287.165 C 321.828 290.206,319.549 293.662,318.205 294.224 C 317.471 294.530,316.001 295.884,314.877 297.286 C 313.770 298.669,311.927 300.700,310.783 301.800 C 309.639 302.900,307.926 304.839,306.977 306.109 C 304.202 309.823,299.949 312.972,295.766 314.412 C 292.285 315.609,286.070 319.063,283.926 320.991 C 281.608 323.075,275.527 326.138,272.000 326.999 C 268.284 327.905,265.423 329.111,264.396 330.204 C 263.197 331.481,259.325 332.975,255.200 333.753 C 253.330 334.106,250.810 334.582,249.600 334.810 C 247.215 335.260,240.163 336.808,234.914 338.033 C 233.107 338.455,230.677 338.800,229.514 338.800 C 228.352 338.801,226.140 339.026,224.600 339.300 C 222.586 339.660,219.780 339.716,214.600 339.502 C 210.640 339.338,195.520 339.047,181.000 338.854 C 153.743 338.493,152.667 338.426,145.600 336.654 C 140.028 335.257,132.497 333.627,130.400 333.363 C 129.054 333.194,126.874 332.425,124.783 331.381 C 122.904 330.443,120.564 329.462,119.583 329.202 C 111.246 326.985,105.327 324.258,100.315 320.322 C 98.905 319.215,97.526 318.446,89.614 314.352 C 86.029 312.498,84.586 311.221,80.400 306.206 C 77.637 302.896,75.506 300.666,71.936 297.352 C 70.621 296.132,69.074 294.111,68.108 292.352 C 67.216 290.728,65.632 288.241,64.588 286.824 C 62.348 283.784,60.607 280.901,60.202 279.561 C 60.043 279.032,58.653 276.080,57.115 273.000 C 53.423 265.609,53.224 264.807,52.820 255.637 C 52.272 243.183,53.109 234.290,55.408 228.152 C 56.174 226.108,56.800 224.262,56.800 224.050 C 56.800 223.617,61.125 214.266,62.466 211.800 C 65.025 207.092,65.600 205.772,65.600 204.604 C 65.600 203.803,66.066 202.676,66.838 201.611 C 67.519 200.672,68.263 199.340,68.493 198.651 C 68.723 197.963,69.224 197.040,69.606 196.600 C 70.396 195.690,72.906 190.757,74.052 187.861 C 75.934 183.105,79.764 181.556,93.021 180.190 C 96.310 179.851,99.180 179.504,99.400 179.418 C 100.082 179.154,100.882 179.188,104.561 179.639 M122.600 211.200 C 122.160 211.389,121.333 211.556,120.762 211.572 C 118.686 211.628,118.300 212.663,118.560 217.473 C 118.688 219.853,118.891 224.050,119.010 226.800 C 119.369 235.062,119.466 235.200,124.900 235.199 C 130.832 235.198,131.238 234.870,132.066 229.400 C 133.411 220.516,132.889 214.409,130.587 212.107 C 129.220 210.740,124.830 210.242,122.600 211.200 M246.783 211.867 C 245.001 212.611,244.902 213.235,244.953 223.480 C 245.005 234.259,244.881 233.809,247.962 234.393 C 252.273 235.210,256.607 234.511,258.207 232.739 L 259.600 231.198 259.600 223.383 C 259.600 214.901,259.236 213.228,257.085 211.819 C 255.986 211.099,248.540 211.134,246.783 211.867 M144.448 255.632 C 143.108 256.168,143.484 258.631,145.321 261.351 C 146.081 262.478,146.827 263.928,146.978 264.574 C 148.370 270.531,158.151 278.621,170.535 284.060 L 173.400 285.318 182.819 285.048 C 191.097 284.811,192.939 284.632,198.019 283.574 C 201.199 282.911,205.150 282.185,206.800 281.960 C 210.767 281.420,211.501 281.119,216.200 278.109 C 222.932 273.798,225.252 272.449,229.101 270.612 C 233.823 268.358,234.087 267.833,232.353 264.162 C 229.984 259.148,226.994 257.127,225.329 259.413 C 224.613 260.395,223.760 260.788,211.803 265.647 C 209.604 266.540,206.806 267.888,205.584 268.642 C 197.768 273.466,182.980 276.401,172.313 275.244 C 167.294 274.699,163.196 272.952,158.639 269.413 C 157.392 268.445,155.763 267.452,155.020 267.207 C 153.628 266.747,153.153 266.116,148.659 258.742 C 147.144 256.256,146.020 255.017,145.467 255.225 C 145.430 255.239,144.972 255.422,144.448 255.632 " stroke="none" fill="#14130c" fill-rule="evenodd"></path><path id="path2" d="M0.000 200.000 L 0.000 400.000 200.000 400.000 L 400.000 400.000 400.000 200.000 L 400.000 0.000 200.000 0.000 L 0.000 0.000 0.000 200.000 M236.235 30.768 C 239.095 31.182,241.853 32.354,243.058 33.666 C 244.096 34.797,247.486 42.529,247.669 44.184 C 247.818 45.530,248.639 45.895,251.659 45.960 C 255.434 46.041,262.554 47.853,264.848 49.316 C 268.091 51.385,269.998 52.274,272.683 52.970 C 275.080 53.591,282.182 56.821,284.671 58.422 C 285.370 58.872,287.151 59.586,288.628 60.008 C 290.104 60.430,292.502 61.478,293.956 62.337 C 295.410 63.196,297.770 64.310,299.200 64.813 C 300.630 65.316,302.340 66.219,303.000 66.821 C 303.660 67.422,304.947 68.287,305.859 68.744 C 307.546 69.588,308.033 70.100,310.868 74.000 C 311.748 75.210,313.667 77.465,315.134 79.011 C 316.600 80.556,318.430 82.690,319.200 83.753 C 319.970 84.815,320.979 86.194,321.443 86.817 C 321.907 87.439,322.503 89.050,322.767 90.396 C 323.032 91.742,323.886 94.318,324.665 96.121 C 325.444 97.925,326.408 100.300,326.806 101.400 C 327.204 102.500,328.172 105.046,328.957 107.057 C 333.829 119.546,336.563 139.603,335.181 152.719 C 334.890 155.483,334.906 158.328,335.239 162.600 C 335.723 168.821,335.609 170.346,334.195 176.600 C 333.847 178.140,333.200 181.117,332.757 183.216 L 331.952 187.032 334.026 193.016 C 338.576 206.146,339.161 208.038,340.338 213.441 C 342.610 223.875,344.059 252.380,342.775 261.400 C 342.556 262.940,342.208 266.630,342.001 269.600 C 341.006 283.880,334.430 297.298,322.717 308.946 C 319.650 311.997,316.236 315.644,315.130 317.052 C 310.583 322.837,294.671 333.837,289.402 334.837 C 288.304 335.046,286.504 335.810,285.402 336.535 C 282.981 338.130,282.956 338.140,277.200 339.817 C 274.670 340.554,270.440 341.814,267.800 342.617 C 265.160 343.420,261.830 344.397,260.400 344.787 C 258.970 345.177,256.750 345.887,255.466 346.364 C 251.713 347.758,243.664 349.719,240.200 350.083 C 230.689 351.083,176.031 351.687,171.600 350.842 C 167.811 350.119,163.046 349.623,155.800 349.199 C 146.837 348.674,143.690 348.213,139.899 346.869 C 124.844 341.534,120.363 339.795,118.600 338.606 C 116.002 336.854,109.751 333.600,108.983 333.600 C 107.824 333.600,97.355 328.711,93.800 326.510 C 91.820 325.284,89.780 324.024,89.267 323.710 C 88.754 323.396,87.134 321.913,85.667 320.414 C 84.200 318.915,82.370 317.372,81.600 316.985 C 80.830 316.598,79.660 315.878,79.000 315.385 C 78.340 314.891,77.240 314.369,76.556 314.224 C 75.305 313.960,70.703 309.380,68.087 305.796 C 67.446 304.918,65.991 303.335,64.853 302.277 C 60.182 297.934,57.102 293.624,55.793 289.600 C 55.399 288.390,54.323 285.780,53.402 283.800 C 51.557 279.836,50.363 276.172,49.425 271.600 C 49.086 269.950,48.549 267.662,48.231 266.516 C 46.655 260.831,46.992 241.661,48.814 233.384 C 49.009 232.495,49.363 229.712,49.600 227.200 C 49.837 224.688,50.196 221.905,50.398 221.016 C 50.600 220.127,51.136 217.746,51.589 215.724 C 52.525 211.546,55.244 204.512,57.654 200.032 C 60.969 193.872,64.800 186.190,64.800 185.702 C 64.800 185.080,65.205 185.053,60.400 186.000 C 54.995 187.065,48.422 187.072,43.932 186.017 C 42.099 185.587,38.727 185.046,36.437 184.815 C 34.108 184.580,31.729 184.105,31.037 183.735 C 30.357 183.371,28.990 182.664,28.000 182.162 C 26.201 181.251,23.037 178.291,20.922 175.541 C 20.305 174.738,18.945 172.963,17.900 171.597 L 16.000 169.112 16.000 164.010 C 16.000 159.653,16.108 158.769,16.741 157.954 C 17.149 157.429,17.800 156.010,18.189 154.800 C 19.090 152.000,21.908 149.213,26.036 147.041 C 27.666 146.183,29.667 144.886,30.482 144.158 C 32.255 142.575,34.280 141.502,37.037 140.684 C 38.157 140.352,39.830 139.695,40.753 139.224 C 41.757 138.712,43.835 138.209,45.916 137.973 C 47.832 137.757,50.390 137.318,51.600 136.999 C 52.810 136.679,55.172 136.227,56.848 135.995 C 58.524 135.762,62.034 135.030,64.648 134.368 C 68.765 133.325,70.549 133.113,78.000 132.781 C 82.730 132.570,88.760 132.139,91.400 131.823 C 94.040 131.506,97.259 131.143,98.553 131.014 C 99.848 130.886,102.413 130.403,104.253 129.941 L 107.600 129.102 107.600 124.482 C 107.600 119.116,108.458 113.972,109.866 110.893 C 110.412 109.700,111.046 107.706,111.276 106.462 C 111.506 105.218,112.208 102.760,112.837 101.000 C 113.465 99.240,114.419 96.067,114.955 93.948 C 116.878 86.349,122.681 73.743,125.444 71.165 C 126.013 70.634,126.845 69.480,127.294 68.600 C 128.215 66.794,133.046 60.551,133.744 60.265 C 133.995 60.162,135.820 58.780,137.800 57.195 C 139.780 55.609,142.229 53.892,143.243 53.378 C 144.257 52.865,145.633 51.984,146.301 51.422 C 146.969 50.860,147.630 50.400,147.770 50.400 C 147.910 50.400,150.494 49.521,153.512 48.447 C 166.332 43.885,172.891 42.226,176.977 42.511 C 178.504 42.617,181.654 42.443,183.977 42.123 C 186.587 41.763,191.973 41.519,198.079 41.483 L 207.958 41.424 208.556 40.012 C 208.885 39.235,209.275 38.150,209.423 37.600 C 210.216 34.652,214.334 32.718,224.200 30.660 C 225.715 30.344,233.804 30.417,236.235 30.768 M96.800 180.195 C 94.710 180.474,91.200 180.908,89.000 181.159 C 78.129 182.400,77.250 182.925,73.551 190.400 C 72.189 193.150,70.681 195.940,70.199 196.600 C 69.716 197.260,69.091 198.520,68.809 199.400 C 68.527 200.280,68.143 201.194,67.956 201.432 C 67.769 201.669,67.179 203.019,66.646 204.432 C 65.687 206.974,61.216 216.368,60.517 217.311 C 60.025 217.974,57.545 223.791,55.862 228.228 C 53.139 235.409,52.121 255.733,54.040 264.600 C 54.768 267.962,62.334 283.312,64.817 286.463 C 65.624 287.488,67.131 289.828,68.165 291.663 C 70.254 295.370,71.492 296.888,73.825 298.603 C 75.663 299.953,76.175 300.488,79.438 304.465 C 82.109 307.721,88.211 313.082,90.652 314.320 C 95.094 316.571,99.614 319.192,101.332 320.515 C 105.995 324.104,111.873 326.835,118.000 328.258 C 119.430 328.590,122.400 329.730,124.600 330.790 C 127.172 332.030,129.385 332.808,130.800 332.970 C 132.010 333.108,135.160 333.743,137.800 334.381 C 153.927 338.276,151.931 338.091,181.600 338.448 C 195.790 338.618,210.730 338.911,214.800 339.098 C 218.906 339.287,222.734 339.286,223.400 339.096 C 224.060 338.907,226.310 338.612,228.400 338.439 C 232.451 338.105,239.207 336.864,243.800 335.611 C 246.633 334.838,250.660 334.014,256.728 332.966 C 260.345 332.341,261.914 331.686,263.867 329.986 C 265.237 328.793,268.043 327.625,272.015 326.596 C 275.006 325.821,281.027 322.871,282.878 321.273 C 285.993 318.586,289.941 316.241,294.428 314.415 C 297.324 313.237,297.929 312.827,302.706 308.800 C 306.451 305.644,314.611 297.424,315.525 295.888 C 315.889 295.276,316.872 294.473,317.709 294.104 C 319.434 293.343,320.205 292.102,323.984 284.000 C 328.013 275.362,328.702 273.827,329.010 272.800 C 329.175 272.250,329.718 270.900,330.216 269.800 C 331.905 266.071,332.675 261.824,333.228 253.200 C 333.418 250.230,333.766 246.810,334.002 245.600 C 336.173 234.455,334.087 212.535,329.934 202.845 C 329.517 201.873,328.997 200.279,328.778 199.302 C 328.176 196.617,325.358 192.662,324.260 192.964 C 323.787 193.094,322.680 193.298,321.800 193.417 C 320.920 193.537,318.310 193.923,316.000 194.276 C 311.764 194.924,295.042 194.791,288.563 194.058 C 285.555 193.718,284.036 194.071,271.200 198.089 C 269.770 198.537,267.520 199.027,266.200 199.179 C 263.870 199.446,258.270 202.342,254.200 205.384 C 253.540 205.878,252.370 206.604,251.600 206.998 C 250.830 207.393,249.210 208.479,248.000 209.412 C 245.095 211.652,236.957 215.739,232.534 217.180 C 230.590 217.814,227.020 219.093,224.600 220.025 C 214.307 223.985,199.686 225.645,192.800 223.635 C 191.810 223.346,190.100 222.973,189.000 222.806 C 185.230 222.234,177.149 219.931,174.203 218.589 C 172.583 217.850,170.479 217.040,169.529 216.788 C 168.578 216.535,166.270 215.458,164.400 214.394 C 162.530 213.330,159.966 212.073,158.703 211.602 C 157.439 211.130,155.459 209.981,154.303 209.047 C 153.146 208.113,151.324 206.753,150.254 206.024 C 147.508 204.154,143.382 201.082,140.800 198.987 C 137.113 195.995,132.402 192.277,130.421 190.796 C 129.389 190.024,127.977 188.915,127.285 188.332 C 126.592 187.750,125.074 186.961,123.912 186.580 C 122.751 186.199,120.450 185.219,118.800 184.401 C 111.608 180.837,103.537 179.294,96.800 180.195 M129.881 210.784 C 133.115 212.756,133.811 217.965,132.481 230.233 C 131.982 234.831,131.423 235.324,126.193 235.773 C 119.928 236.311,119.116 235.410,118.711 227.471 C 118.551 224.352,118.308 219.818,118.170 217.395 C 117.845 211.710,118.061 211.380,122.602 210.618 C 127.108 209.863,128.419 209.892,129.881 210.784 M257.182 211.391 C 259.456 212.567,260.000 214.960,260.000 223.783 L 260.000 231.618 258.349 233.409 L 256.698 235.200 252.849 235.190 C 244.132 235.169,244.312 235.423,244.378 223.196 C 244.435 212.854,244.541 212.239,246.404 211.455 C 248.120 210.734,255.823 210.688,257.182 211.391 M147.131 255.945 C 147.719 256.575,148.920 258.293,149.800 259.763 C 153.096 265.269,153.691 266.030,155.349 266.865 C 156.257 267.323,158.080 268.462,159.400 269.396 C 160.720 270.330,163.330 271.882,165.200 272.845 L 168.600 274.596 177.400 274.598 C 190.010 274.601,198.468 272.615,206.430 267.781 C 207.656 267.037,210.266 265.808,212.230 265.052 C 217.694 262.946,225.189 259.295,225.451 258.611 C 226.445 256.022,230.858 259.498,233.236 264.743 C 234.873 268.353,234.267 269.137,227.920 271.628 C 226.754 272.086,225.440 272.787,225.000 273.186 C 224.560 273.585,223.210 274.406,222.000 275.010 C 220.790 275.615,218.720 276.873,217.400 277.807 C 213.895 280.288,210.402 281.922,207.952 282.226 C 206.769 282.374,204.540 282.826,203.000 283.231 C 194.320 285.512,175.519 286.352,171.075 284.657 C 167.875 283.436,161.050 279.693,158.198 277.595 C 157.096 276.784,155.656 275.843,154.998 275.502 C 152.381 274.148,147.871 268.401,146.601 264.801 C 146.273 263.872,145.373 262.073,144.602 260.804 C 141.907 256.367,143.918 252.504,147.131 255.945 " stroke="none" fill="#fbfbfb" fill-rule="evenodd"></path><path id="path3" d="M227.317 30.697 C 228.811 30.774,231.151 30.774,232.517 30.696 C 233.882 30.618,232.660 30.555,229.800 30.555 C 226.940 30.556,225.822 30.620,227.317 30.697 M210.604 35.596 C 209.974 36.254,209.535 36.856,209.629 36.934 C 209.723 37.012,210.313 36.474,210.939 35.738 C 212.354 34.077,212.145 33.988,210.604 35.596 M195.700 41.476 C 196.085 41.576,196.715 41.576,197.100 41.476 C 197.485 41.375,197.170 41.293,196.400 41.293 C 195.630 41.293,195.315 41.375,195.700 41.476 M187.700 41.887 C 188.305 41.978,189.295 41.978,189.900 41.887 C 190.505 41.795,190.010 41.720,188.800 41.720 C 187.590 41.720,187.095 41.795,187.700 41.887 M247.200 43.976 C 247.200 44.623,247.342 45.241,247.516 45.348 C 247.690 45.456,247.761 44.927,247.673 44.172 C 247.476 42.491,247.200 42.377,247.200 43.976 M251.705 46.287 C 252.314 46.379,253.214 46.377,253.705 46.282 C 254.197 46.187,253.700 46.111,252.600 46.114 C 251.500 46.117,251.097 46.195,251.705 46.287 M306.800 69.325 C 306.800 69.394,307.385 69.979,308.100 70.625 L 309.400 71.800 308.225 70.500 C 307.130 69.288,306.800 69.016,306.800 69.325 M124.975 71.700 L 123.800 73.000 125.100 71.825 C 126.312 70.730,126.584 70.400,126.275 70.400 C 126.206 70.400,125.621 70.985,124.975 71.700 M313.400 77.600 C 314.259 78.480,315.052 79.200,315.162 79.200 C 315.272 79.200,314.659 78.480,313.800 77.600 C 312.941 76.720,312.148 76.000,312.038 76.000 C 311.928 76.000,312.541 76.720,313.400 77.600 M107.686 123.871 C 107.610 128.511,107.516 129.163,106.900 129.324 C 106.244 129.496,106.245 129.510,106.913 129.554 C 107.950 129.621,108.039 129.079,107.899 123.578 L 107.773 118.600 107.686 123.871 M334.093 127.600 C 334.093 128.370,334.175 128.685,334.276 128.300 C 334.376 127.915,334.376 127.285,334.276 126.900 C 334.175 126.515,334.093 126.830,334.093 127.600 M334.501 131.000 C 334.505 131.880,334.587 132.193,334.683 131.695 C 334.779 131.198,334.775 130.478,334.675 130.095 C 334.575 129.713,334.496 130.120,334.501 131.000 M82.307 132.690 C 83.026 132.779,84.106 132.777,84.707 132.686 C 85.308 132.595,84.720 132.522,83.400 132.524 C 82.080 132.526,81.588 132.601,82.307 132.690 M334.948 138.800 C 334.948 141.110,335.014 142.055,335.095 140.900 C 335.176 139.745,335.176 137.855,335.095 136.700 C 335.014 135.545,334.948 136.490,334.948 138.800 M47.700 137.876 C 48.085 137.976,48.715 137.976,49.100 137.876 C 49.485 137.775,49.170 137.693,48.400 137.693 C 47.630 137.693,47.315 137.775,47.700 137.876 M30.175 144.500 L 29.000 145.800 30.300 144.625 C 31.512 143.530,31.784 143.200,31.475 143.200 C 31.406 143.200,30.821 143.785,30.175 144.500 M335.331 147.800 C 335.333 149.340,335.405 149.921,335.492 149.091 C 335.579 148.261,335.577 147.001,335.489 146.291 C 335.400 145.581,335.329 146.260,335.331 147.800 M20.378 151.100 L 19.000 152.600 20.500 151.222 C 21.896 149.938,22.184 149.600,21.878 149.600 C 21.812 149.600,21.137 150.275,20.378 151.100 M334.893 153.600 C 334.893 154.370,334.975 154.685,335.076 154.300 C 335.176 153.915,335.176 153.285,335.076 152.900 C 334.975 152.515,334.893 152.830,334.893 153.600 M16.157 164.000 C 16.157 166.970,16.220 168.185,16.297 166.700 C 16.374 165.215,16.374 162.785,16.297 161.300 C 16.220 159.815,16.157 161.030,16.157 164.000 M334.901 161.000 C 334.905 161.880,334.987 162.193,335.083 161.695 C 335.179 161.198,335.175 160.478,335.075 160.095 C 334.975 159.713,334.896 160.120,334.901 161.000 M335.337 167.400 C 335.339 169.160,335.409 169.830,335.493 168.889 C 335.578 167.949,335.577 166.509,335.491 165.689 C 335.405 164.870,335.336 165.640,335.337 167.400 M18.400 172.525 C 18.400 172.594,18.985 173.179,19.700 173.825 L 21.000 175.000 19.825 173.700 C 18.730 172.488,18.400 172.216,18.400 172.525 M102.500 179.876 C 102.885 179.976,103.515 179.976,103.900 179.876 C 104.285 179.775,103.970 179.693,103.200 179.693 C 102.430 179.693,102.115 179.775,102.500 179.876 M92.305 180.683 C 92.802 180.779,93.522 180.775,93.905 180.675 C 94.287 180.575,93.880 180.496,93.000 180.501 C 92.120 180.505,91.807 180.587,92.305 180.683 M76.365 184.500 C 75.712 185.455,75.678 185.588,76.238 185.000 C 76.657 184.560,77.259 183.975,77.576 183.700 C 77.916 183.406,77.968 183.200,77.704 183.200 C 77.457 183.200,76.854 183.785,76.365 184.500 M34.700 184.682 C 35.195 184.778,36.005 184.778,36.500 184.682 C 36.995 184.587,36.590 184.509,35.600 184.509 C 34.610 184.509,34.205 184.587,34.700 184.682 M64.654 185.500 C 64.753 185.885,64.017 187.820,63.018 189.800 C 62.020 191.780,61.493 193.040,61.849 192.600 C 62.792 191.432,65.573 185.479,65.346 185.113 C 64.979 184.519,64.475 184.802,64.654 185.500 M74.600 187.461 C 74.264 188.265,74.082 189.015,74.195 189.128 C 74.308 189.241,74.400 189.235,74.400 189.116 C 74.400 188.996,74.672 188.246,75.005 187.449 C 75.338 186.652,75.521 186.000,75.411 186.000 C 75.301 186.000,74.936 186.658,74.600 187.461 M54.700 186.682 C 55.195 186.778,56.005 186.778,56.500 186.682 C 56.995 186.587,56.590 186.509,55.600 186.509 C 54.610 186.509,54.205 186.587,54.700 186.682 M324.915 192.900 C 325.282 193.175,325.870 193.760,326.221 194.200 C 326.572 194.640,326.729 194.730,326.569 194.400 C 326.105 193.441,325.112 192.400,324.662 192.400 C 324.434 192.400,324.548 192.625,324.915 192.900 M320.500 193.476 C 320.885 193.576,321.515 193.576,321.900 193.476 C 322.285 193.375,321.970 193.293,321.200 193.293 C 320.430 193.293,320.115 193.375,320.500 193.476 M286.900 193.876 C 287.285 193.976,287.915 193.976,288.300 193.876 C 288.685 193.775,288.370 193.693,287.600 193.693 C 286.830 193.693,286.515 193.775,286.900 193.876 M291.911 194.293 C 292.851 194.378,294.291 194.377,295.111 194.291 C 295.930 194.205,295.160 194.136,293.400 194.137 C 291.640 194.139,290.970 194.209,291.911 194.293 M138.400 196.878 C 140.958 199.257,142.472 200.433,141.200 199.053 C 140.430 198.218,139.440 197.345,139.000 197.113 C 138.560 196.881,138.290 196.775,138.400 196.878 M67.116 202.298 C 66.558 203.344,65.984 204.702,65.839 205.315 C 65.695 205.929,64.310 208.989,62.761 212.115 C 61.213 215.242,60.143 217.606,60.385 217.368 C 61.008 216.755,65.490 207.496,66.646 204.432 C 67.179 203.019,67.818 201.620,68.065 201.322 C 68.312 201.024,68.427 200.694,68.322 200.588 C 68.216 200.483,67.673 201.252,67.116 202.298 M154.767 209.345 C 155.300 210.001,156.800 210.993,156.800 210.689 C 156.800 210.613,156.215 210.122,155.500 209.599 C 154.696 209.010,154.416 208.913,154.767 209.345 M126.300 210.282 C 126.795 210.378,127.605 210.378,128.100 210.282 C 128.595 210.187,128.190 210.109,127.200 210.109 C 126.210 210.109,125.805 210.187,126.300 210.282 M252.100 211.076 C 252.485 211.176,253.115 211.176,253.500 211.076 C 253.885 210.975,253.570 210.893,252.800 210.893 C 252.030 210.893,251.715 210.975,252.100 211.076 M118.131 217.800 C 118.133 219.340,118.205 219.921,118.292 219.091 C 118.379 218.261,118.377 217.001,118.289 216.291 C 118.200 215.581,118.129 216.260,118.131 217.800 M244.560 223.000 C 244.561 226.300,244.622 227.597,244.698 225.882 C 244.773 224.167,244.772 221.467,244.697 219.882 C 244.621 218.297,244.559 219.700,244.560 223.000 M334.524 222.600 C 334.526 223.920,334.601 224.412,334.690 223.693 C 334.779 222.974,334.777 221.894,334.686 221.293 C 334.595 220.692,334.522 221.280,334.524 222.600 M57.872 222.219 C 56.932 224.189,57.064 224.524,58.047 222.662 C 58.493 221.816,58.787 221.054,58.701 220.967 C 58.614 220.881,58.241 221.444,57.872 222.219 M341.693 222.800 C 341.693 223.570,341.775 223.885,341.876 223.500 C 341.976 223.115,341.976 222.485,341.876 222.100 C 341.775 221.715,341.693 222.030,341.693 222.800 M187.700 222.676 C 188.085 222.776,188.715 222.776,189.100 222.676 C 189.485 222.575,189.170 222.493,188.400 222.493 C 187.630 222.493,187.315 222.575,187.700 222.676 M198.905 224.287 C 199.514 224.379,200.414 224.377,200.905 224.282 C 201.397 224.187,200.900 224.111,199.800 224.114 C 198.700 224.117,198.297 224.195,198.905 224.287 M205.700 224.276 C 206.085 224.376,206.715 224.376,207.100 224.276 C 207.485 224.175,207.170 224.093,206.400 224.093 C 205.630 224.093,205.315 224.175,205.700 224.276 M49.714 226.600 C 49.717 227.700,49.795 228.103,49.887 227.495 C 49.979 226.886,49.977 225.986,49.882 225.495 C 49.787 225.003,49.711 225.500,49.714 226.600 M342.146 229.400 C 342.147 231.600,342.214 232.449,342.295 231.287 C 342.376 230.124,342.376 228.324,342.293 227.287 C 342.211 226.249,342.145 227.200,342.146 229.400 M132.109 231.200 C 132.109 232.190,132.187 232.595,132.282 232.100 C 132.378 231.605,132.378 230.795,132.282 230.300 C 132.187 229.805,132.109 230.210,132.109 231.200 M258.012 233.387 L 256.668 234.774 252.434 234.902 L 248.200 235.030 252.419 235.115 L 256.638 235.200 258.200 233.600 C 259.059 232.720,259.671 232.000,259.560 232.000 C 259.448 232.000,258.752 232.624,258.012 233.387 M334.486 238.644 C 334.439 241.088,334.313 243.968,334.206 245.044 L 334.012 247.000 334.418 245.414 C 334.641 244.542,334.767 241.662,334.698 239.014 L 334.573 234.200 334.486 238.644 M123.705 235.887 C 124.314 235.979,125.214 235.977,125.705 235.882 C 126.197 235.787,125.700 235.711,124.600 235.714 C 123.500 235.717,123.097 235.795,123.705 235.887 M53.309 239.600 C 53.309 240.590,53.387 240.995,53.482 240.500 C 53.578 240.005,53.578 239.195,53.482 238.700 C 53.387 238.205,53.309 238.610,53.309 239.600 M342.914 241.400 C 342.917 242.500,342.995 242.903,343.087 242.295 C 343.179 241.686,343.177 240.786,343.082 240.295 C 342.987 239.803,342.911 240.300,342.914 241.400 M52.924 245.400 C 52.926 246.720,53.001 247.212,53.090 246.493 C 53.179 245.774,53.177 244.694,53.086 244.093 C 52.995 243.492,52.922 244.080,52.924 245.400 M342.901 246.600 C 342.905 247.480,342.987 247.793,343.083 247.295 C 343.179 246.798,343.175 246.078,343.075 245.695 C 342.975 245.313,342.896 245.720,342.901 246.600 M333.337 251.800 C 333.339 253.560,333.409 254.230,333.493 253.289 C 333.578 252.349,333.577 250.909,333.491 250.089 C 333.405 249.270,333.336 250.040,333.337 251.800 M342.931 257.000 C 342.933 258.540,343.005 259.121,343.092 258.291 C 343.179 257.461,343.177 256.201,343.089 255.491 C 343.000 254.781,342.929 255.460,342.931 257.000 M225.800 258.203 C 226.714 258.521,229.129 258.609,228.948 258.316 C 228.841 258.142,227.998 258.014,227.076 258.032 C 226.154 258.049,225.580 258.126,225.800 258.203 M53.324 260.600 C 53.326 261.920,53.401 262.412,53.490 261.693 C 53.579 260.974,53.577 259.894,53.486 259.293 C 53.395 258.692,53.322 259.280,53.324 260.600 M223.200 260.200 C 222.210 260.730,221.542 261.172,221.716 261.182 C 222.141 261.206,225.200 259.634,225.200 259.392 C 225.200 259.127,225.217 259.120,223.200 260.200 M219.600 261.800 C 219.050 262.114,218.780 262.372,219.000 262.372 C 219.220 262.372,219.850 262.114,220.400 261.800 C 220.950 261.486,221.220 261.228,221.000 261.228 C 220.780 261.228,220.150 261.486,219.600 261.800 M153.944 266.376 C 154.464 266.829,155.079 267.200,155.311 267.200 C 155.803 267.200,155.779 267.180,154.200 266.255 L 153.000 265.553 153.944 266.376 M234.000 267.173 C 234.000 267.451,233.415 268.229,232.700 268.902 C 231.792 269.755,231.672 269.980,232.300 269.648 C 233.338 269.099,234.630 267.296,234.254 266.921 C 234.114 266.781,234.000 266.894,234.000 267.173 M341.737 270.200 C 341.739 271.960,341.809 272.630,341.893 271.689 C 341.978 270.749,341.977 269.309,341.891 268.489 C 341.805 267.670,341.736 268.440,341.737 270.200 M159.567 269.745 C 160.100 270.401,161.600 271.393,161.600 271.089 C 161.600 271.013,161.015 270.522,160.300 269.999 C 159.496 269.410,159.216 269.313,159.567 269.745 M152.800 273.800 C 153.546 274.570,154.247 275.200,154.357 275.200 C 154.467 275.200,153.946 274.570,153.200 273.800 C 152.454 273.030,151.753 272.400,151.643 272.400 C 151.533 272.400,152.054 273.030,152.800 273.800 M224.200 273.450 C 223.481 274.062,223.334 274.305,223.833 274.057 C 224.566 273.693,225.941 272.376,225.549 272.414 C 225.467 272.422,224.860 272.888,224.200 273.450 M174.918 275.098 C 176.633 275.173,179.333 275.172,180.918 275.097 C 182.503 275.021,181.100 274.959,177.800 274.960 C 174.500 274.961,173.203 275.022,174.918 275.098 M52.400 281.753 C 52.400 282.182,53.590 284.400,53.821 284.400 C 53.931 284.400,53.723 283.815,53.359 283.100 C 52.617 281.640,52.400 281.336,52.400 281.753 M206.500 282.276 C 206.885 282.376,207.515 282.376,207.900 282.276 C 208.285 282.175,207.970 282.093,207.200 282.093 C 206.430 282.093,206.115 282.175,206.500 282.276 M203.400 282.800 C 202.896 283.017,202.822 283.144,203.200 283.144 C 203.530 283.144,204.160 282.989,204.600 282.800 C 205.104 282.583,205.178 282.456,204.800 282.456 C 204.470 282.456,203.840 282.611,203.400 282.800 M200.000 283.600 C 199.208 283.854,199.167 283.920,199.800 283.920 C 200.240 283.920,201.050 283.776,201.600 283.600 C 202.392 283.346,202.433 283.280,201.800 283.280 C 201.360 283.280,200.550 283.424,200.000 283.600 M188.100 285.091 C 188.925 285.178,190.275 285.178,191.100 285.091 C 191.925 285.005,191.250 284.934,189.600 284.934 C 187.950 284.934,187.275 285.005,188.100 285.091 M182.505 285.487 C 183.114 285.579,184.014 285.577,184.505 285.482 C 184.997 285.387,184.500 285.311,183.400 285.314 C 182.300 285.317,181.897 285.395,182.505 285.487 M312.981 298.900 L 311.400 300.600 313.100 299.019 C 314.681 297.548,314.984 297.200,314.681 297.200 C 314.616 297.200,313.851 297.965,312.981 298.900 M64.800 302.125 C 64.800 302.194,65.385 302.779,66.100 303.425 L 67.400 304.600 66.225 303.300 C 65.130 302.088,64.800 301.816,64.800 302.125 M305.391 306.466 C 304.516 307.163,302.990 308.481,302.000 309.396 C 301.010 310.311,299.682 311.406,299.050 311.830 C 295.824 313.990,295.712 314.086,296.748 313.788 C 298.187 313.374,300.934 311.317,304.335 308.105 C 307.591 305.030,308.008 304.384,305.391 306.466 M323.381 308.100 L 321.800 309.800 323.500 308.219 C 324.435 307.349,325.200 306.584,325.200 306.519 C 325.200 306.216,324.852 306.519,323.381 308.100 M83.468 309.119 C 84.165 309.786,84.645 310.422,84.534 310.533 C 84.422 310.644,84.752 310.956,85.266 311.225 C 85.780 311.495,86.856 312.230,87.658 312.858 C 89.649 314.418,89.946 314.301,88.101 312.684 C 85.693 310.572,82.079 307.792,83.468 309.119 M74.000 312.600 C 74.746 313.370,75.447 314.000,75.557 314.000 C 75.667 314.000,75.146 313.370,74.400 312.600 C 73.654 311.830,72.953 311.200,72.843 311.200 C 72.733 311.200,73.254 311.830,74.000 312.600 M289.500 316.629 C 288.005 317.440,288.096 317.778,289.600 317.000 C 290.260 316.659,290.800 316.294,290.800 316.190 C 290.800 315.932,290.757 315.947,289.500 316.629 M312.778 319.500 L 311.400 321.000 312.900 319.622 C 314.296 318.338,314.584 318.000,314.278 318.000 C 314.212 318.000,313.537 318.675,312.778 319.500 M122.833 330.149 C 123.245 330.517,125.600 331.600,125.600 331.421 C 125.600 331.190,123.382 330.000,122.953 330.000 C 122.796 330.000,122.742 330.067,122.833 330.149 M283.800 337.200 C 283.140 337.637,282.780 337.992,283.000 337.988 C 283.401 337.982,285.576 336.423,285.200 336.412 C 285.090 336.408,284.460 336.763,283.800 337.200 M150.100 337.476 C 150.485 337.576,151.115 337.576,151.500 337.476 C 151.885 337.375,151.570 337.293,150.800 337.293 C 150.030 337.293,149.715 337.375,150.100 337.476 M169.500 338.700 C 176.155 338.761,187.045 338.761,193.700 338.700 C 200.355 338.638,194.910 338.588,181.600 338.588 C 168.290 338.588,162.845 338.638,169.500 338.700 M227.091 338.689 C 227.801 338.777,229.061 338.779,229.891 338.692 C 230.721 338.605,230.140 338.533,228.600 338.531 C 227.060 338.529,226.381 338.600,227.091 338.689 M152.300 349.093 C 153.235 349.177,154.765 349.177,155.700 349.093 C 156.635 349.009,155.870 348.940,154.000 348.940 C 152.130 348.940,151.365 349.009,152.300 349.093 M164.900 349.887 C 165.505 349.978,166.495 349.978,167.100 349.887 C 167.705 349.795,167.210 349.720,166.000 349.720 C 164.790 349.720,164.295 349.795,164.900 349.887 M241.105 349.883 C 241.602 349.979,242.322 349.975,242.705 349.875 C 243.087 349.775,242.680 349.696,241.800 349.701 C 240.920 349.705,240.607 349.787,241.105 349.883 M211.900 350.699 C 216.135 350.764,223.065 350.764,227.300 350.699 C 231.535 350.635,228.070 350.582,219.600 350.582 C 211.130 350.582,207.665 350.635,211.900 350.699 M173.500 351.082 C 173.995 351.178,174.805 351.178,175.300 351.082 C 175.795 350.987,175.390 350.909,174.400 350.909 C 173.410 350.909,173.005 350.987,173.500 351.082 M183.324 351.499 C 186.583 351.567,191.803 351.566,194.924 351.499 C 198.046 351.431,195.380 351.376,189.000 351.377 C 182.620 351.377,180.066 351.432,183.324 351.499 " stroke="none" fill="#999893" fill-rule="evenodd"></path><path id="path4" d="M225.300 31.094 C 226.345 31.176,228.055 31.176,229.100 31.094 C 230.145 31.012,229.290 30.944,227.200 30.944 C 225.110 30.944,224.255 31.012,225.300 31.094 M234.105 31.087 C 234.714 31.179,235.614 31.177,236.105 31.082 C 236.597 30.987,236.100 30.911,235.000 30.914 C 233.900 30.917,233.497 30.995,234.105 31.087 M198.505 41.487 C 199.114 41.579,200.014 41.577,200.505 41.482 C 200.997 41.387,200.500 41.311,199.400 41.314 C 198.300 41.317,197.897 41.395,198.505 41.487 M191.907 41.890 C 192.626 41.979,193.706 41.977,194.307 41.886 C 194.908 41.795,194.320 41.722,193.000 41.724 C 191.680 41.726,191.188 41.801,191.907 41.890 M203.507 41.890 C 204.226 41.979,205.306 41.977,205.907 41.886 C 206.508 41.795,205.920 41.722,204.600 41.724 C 203.280 41.726,202.788 41.801,203.507 41.890 M174.700 42.682 C 175.195 42.778,176.005 42.778,176.500 42.682 C 176.995 42.587,176.590 42.509,175.600 42.509 C 174.610 42.509,174.205 42.587,174.700 42.682 M264.800 49.779 C 264.800 49.889,265.340 50.259,266.000 50.600 C 266.660 50.941,267.200 51.131,267.200 51.021 C 267.200 50.911,266.660 50.541,266.000 50.200 C 265.340 49.859,264.800 49.669,264.800 49.779 M142.700 53.829 C 141.205 54.640,141.296 54.978,142.800 54.200 C 143.460 53.859,144.000 53.494,144.000 53.390 C 144.000 53.132,143.957 53.147,142.700 53.829 M279.633 56.149 C 280.045 56.517,282.400 57.600,282.400 57.421 C 282.400 57.190,280.182 56.000,279.753 56.000 C 279.596 56.000,279.542 56.067,279.633 56.149 M315.400 80.000 C 316.483 81.100,317.460 82.000,317.570 82.000 C 317.680 82.000,316.883 81.100,315.800 80.000 C 314.717 78.900,313.740 78.000,313.630 78.000 C 313.520 78.000,314.317 78.900,315.400 80.000 M96.705 131.483 C 97.202 131.579,97.922 131.575,98.305 131.475 C 98.687 131.375,98.280 131.296,97.400 131.301 C 96.520 131.305,96.207 131.387,96.705 131.483 M89.700 132.276 C 90.085 132.376,90.715 132.376,91.100 132.276 C 91.485 132.175,91.170 132.093,90.400 132.093 C 89.630 132.093,89.315 132.175,89.700 132.276 M86.100 132.676 C 86.485 132.776,87.115 132.776,87.500 132.676 C 87.885 132.575,87.570 132.493,86.800 132.493 C 86.030 132.493,85.715 132.575,86.100 132.676 M334.493 133.600 C 334.493 134.370,334.575 134.685,334.676 134.300 C 334.776 133.915,334.776 133.285,334.676 132.900 C 334.575 132.515,334.493 132.830,334.493 133.600 M74.882 133.096 C 76.358 133.173,78.878 133.173,80.482 133.097 C 82.087 133.021,80.880 132.958,77.800 132.958 C 74.720 132.957,73.407 133.019,74.882 133.096 M45.905 138.283 C 46.402 138.379,47.122 138.375,47.505 138.275 C 47.887 138.175,47.480 138.096,46.600 138.101 C 45.720 138.105,45.407 138.187,45.905 138.283 M334.954 147.600 C 334.954 150.350,335.018 151.475,335.096 150.100 C 335.174 148.725,335.174 146.475,335.096 145.100 C 335.018 143.725,334.954 144.850,334.954 147.600 M20.800 151.000 C 19.828 151.990,19.123 152.800,19.233 152.800 C 19.343 152.800,20.228 151.990,21.200 151.000 C 22.172 150.010,22.877 149.200,22.767 149.200 C 22.657 149.200,21.772 150.010,20.800 151.000 M334.537 157.000 C 334.539 158.760,334.609 159.430,334.693 158.489 C 334.778 157.549,334.777 156.109,334.691 155.289 C 334.605 154.470,334.536 155.240,334.537 157.000 M334.954 167.200 C 334.954 169.950,335.018 171.075,335.096 169.700 C 335.174 168.325,335.174 166.075,335.096 164.700 C 335.018 163.325,334.954 164.450,334.954 167.200 M23.583 178.500 C 24.564 179.545,25.419 180.400,25.483 180.400 C 25.784 180.400,25.466 180.041,23.700 178.383 L 21.800 176.600 23.583 178.500 M100.305 179.483 C 100.802 179.579,101.522 179.575,101.905 179.475 C 102.287 179.375,101.880 179.296,101.000 179.301 C 100.120 179.305,99.807 179.387,100.305 179.483 M52.500 179.876 C 52.885 179.976,53.515 179.976,53.900 179.876 C 54.285 179.775,53.970 179.693,53.200 179.693 C 52.430 179.693,52.115 179.775,52.500 179.876 M93.505 180.283 C 94.002 180.379,94.722 180.375,95.105 180.275 C 95.487 180.175,95.080 180.096,94.200 180.101 C 93.320 180.105,93.007 180.187,93.505 180.283 M89.505 180.683 C 90.002 180.779,90.722 180.775,91.105 180.675 C 91.487 180.575,91.080 180.496,90.200 180.501 C 89.320 180.505,89.007 180.587,89.505 180.683 M75.904 184.500 C 74.897 185.821,72.220 191.759,72.790 191.406 C 72.961 191.300,73.515 190.176,74.021 188.907 C 74.527 187.638,75.458 185.835,76.090 184.900 C 77.444 182.896,77.324 182.637,75.904 184.500 M65.309 185.043 C 65.622 185.355,63.923 189.233,62.372 191.751 C 61.710 192.825,61.231 193.765,61.307 193.840 C 61.439 193.973,64.474 189.640,65.494 187.861 C 66.122 186.767,66.147 184.800,65.533 184.800 C 65.277 184.800,65.176 184.909,65.309 185.043 M285.505 193.483 C 286.002 193.579,286.722 193.575,287.105 193.475 C 287.487 193.375,287.080 193.296,286.200 193.301 C 285.320 193.305,285.007 193.387,285.505 193.483 M318.100 193.476 C 318.485 193.576,319.115 193.576,319.500 193.476 C 319.885 193.375,319.570 193.293,318.800 193.293 C 318.030 193.293,317.715 193.375,318.100 193.476 M289.500 193.882 C 289.995 193.978,290.805 193.978,291.300 193.882 C 291.795 193.787,291.390 193.709,290.400 193.709 C 289.410 193.709,289.005 193.787,289.500 193.882 M60.125 196.032 C 59.650 196.900,59.429 197.506,59.634 197.379 C 60.077 197.105,61.318 194.784,61.124 194.591 C 61.050 194.516,60.600 195.165,60.125 196.032 M70.617 195.147 C 70.486 195.558,70.024 196.216,69.590 196.609 C 69.155 197.002,68.800 197.501,68.800 197.717 C 68.800 197.933,69.340 197.431,70.000 196.600 C 70.660 195.769,71.200 194.935,71.200 194.745 C 71.200 194.141,70.862 194.374,70.617 195.147 M302.719 194.698 C 304.544 194.772,307.424 194.772,309.119 194.697 C 310.814 194.622,309.320 194.561,305.800 194.562 C 302.280 194.562,300.894 194.624,302.719 194.698 M266.800 198.800 C 265.416 199.091,265.414 199.095,266.600 199.141 C 267.260 199.167,268.070 199.013,268.400 198.800 C 269.066 198.370,268.845 198.370,266.800 198.800 M66.888 201.529 C 66.123 202.650,65.607 203.901,65.618 204.608 L 65.635 205.800 66.152 204.353 C 66.437 203.557,67.079 202.243,67.580 201.432 C 68.923 199.259,68.385 199.335,66.888 201.529 M56.678 202.220 C 55.209 205.214,55.345 205.569,56.846 202.660 C 57.510 201.373,57.986 200.253,57.904 200.171 C 57.823 200.089,57.271 201.011,56.678 202.220 M62.866 210.900 C 62.426 211.615,61.748 213.010,61.358 214.000 C 60.968 214.990,60.323 216.340,59.926 217.000 C 59.528 217.660,59.210 218.380,59.219 218.600 C 59.238 219.061,60.304 217.119,62.459 212.700 C 64.047 209.445,64.213 208.709,62.866 210.900 M126.669 210.765 C 128.702 210.931,129.815 211.233,130.488 211.800 C 131.011 212.240,130.932 212.105,130.313 211.500 C 129.292 210.502,128.937 210.406,126.494 210.465 L 123.800 210.529 126.669 210.765 M249.900 211.482 C 250.395 211.578,251.205 211.578,251.700 211.482 C 252.195 211.387,251.790 211.309,250.800 211.309 C 249.810 211.309,249.405 211.387,249.900 211.482 M245.398 212.402 C 244.375 213.532,244.810 213.637,245.886 212.520 C 246.373 212.014,246.626 211.600,246.448 211.600 C 246.270 211.600,245.797 211.961,245.398 212.402 M238.300 214.229 C 236.749 215.070,236.925 215.361,238.500 214.559 C 240.008 213.793,240.275 213.594,239.767 213.616 C 239.565 213.625,238.905 213.901,238.300 214.229 M244.493 216.000 C 244.493 216.770,244.575 217.085,244.676 216.700 C 244.776 216.315,244.776 215.685,244.676 215.300 C 244.575 214.915,244.493 215.230,244.493 216.000 M259.765 223.400 C 259.766 227.360,259.826 228.926,259.898 226.880 C 259.971 224.834,259.971 221.594,259.898 219.680 C 259.824 217.766,259.765 219.440,259.765 223.400 M201.907 217.890 C 202.626 217.979,203.706 217.977,204.307 217.886 C 204.908 217.795,204.320 217.722,203.000 217.724 C 201.680 217.726,201.188 217.801,201.907 217.890 M132.937 221.000 C 132.939 222.760,133.009 223.430,133.093 222.489 C 133.178 221.549,133.177 220.109,133.091 219.289 C 133.005 218.470,132.936 219.240,132.937 221.000 M334.493 219.200 C 334.493 219.970,334.575 220.285,334.676 219.900 C 334.776 219.515,334.776 218.885,334.676 218.500 C 334.575 218.115,334.493 218.430,334.493 219.200 M57.878 221.420 C 57.285 222.629,56.800 223.839,56.800 224.109 C 56.800 224.379,57.345 223.449,58.010 222.043 C 58.675 220.637,59.160 219.427,59.088 219.354 C 59.015 219.282,58.471 220.211,57.878 221.420 M244.944 223.600 C 244.944 225.690,245.012 226.545,245.094 225.500 C 245.176 224.455,245.176 222.745,245.094 221.700 C 245.012 220.655,244.944 221.510,244.944 223.600 M118.950 227.000 C 118.951 229.420,119.016 230.358,119.096 229.085 C 119.176 227.812,119.175 225.832,119.094 224.685 C 119.014 223.538,118.949 224.580,118.950 227.000 M334.788 234.400 C 334.671 240.890,334.435 246.560,334.262 247.000 C 334.090 247.440,334.233 247.311,334.581 246.713 C 335.124 245.778,335.197 244.008,335.106 234.113 L 335.000 222.600 334.788 234.400 M195.700 223.887 C 196.305 223.978,197.295 223.978,197.900 223.887 C 198.505 223.795,198.010 223.720,196.800 223.720 C 195.590 223.720,195.095 223.795,195.700 223.887 M207.500 223.882 C 207.995 223.978,208.805 223.978,209.300 223.882 C 209.795 223.787,209.390 223.709,208.400 223.709 C 207.410 223.709,207.005 223.787,207.500 223.882 M202.505 224.287 C 203.114 224.379,204.014 224.377,204.505 224.282 C 204.997 224.187,204.500 224.111,203.400 224.114 C 202.300 224.117,201.897 224.195,202.505 224.287 M341.701 225.400 C 341.705 226.280,341.787 226.593,341.883 226.095 C 341.979 225.598,341.975 224.878,341.875 224.495 C 341.775 224.113,341.696 224.520,341.701 225.400 M244.446 230.676 C 244.421 231.818,244.538 232.838,244.707 232.943 C 244.876 233.047,244.957 232.383,244.886 231.466 C 244.679 228.775,244.496 228.447,244.446 230.676 M258.071 232.850 C 256.873 234.212,256.517 234.376,254.471 234.505 L 252.200 234.649 254.419 234.724 C 256.444 234.793,260.519 232.226,259.574 231.477 C 259.478 231.401,258.802 232.019,258.071 232.850 M53.701 234.600 C 53.705 235.480,53.787 235.793,53.883 235.295 C 53.979 234.798,53.975 234.078,53.875 233.695 C 53.775 233.313,53.696 233.720,53.701 234.600 M123.111 235.493 C 124.051 235.578,125.491 235.577,126.311 235.491 C 127.130 235.405,126.360 235.336,124.600 235.337 C 122.840 235.339,122.170 235.409,123.111 235.493 M48.493 236.800 C 48.493 237.570,48.575 237.885,48.676 237.500 C 48.776 237.115,48.776 236.485,48.676 236.100 C 48.575 235.715,48.493 236.030,48.493 236.800 M342.520 238.400 C 342.520 239.610,342.595 240.105,342.687 239.500 C 342.778 238.895,342.778 237.905,342.687 237.300 C 342.595 236.695,342.520 237.190,342.520 238.400 M52.914 241.400 C 52.917 242.500,52.995 242.903,53.087 242.295 C 53.179 241.686,53.177 240.786,53.082 240.295 C 52.987 239.803,52.911 240.300,52.914 241.400 M47.357 248.800 C 47.357 251.770,47.420 252.985,47.497 251.500 C 47.574 250.015,47.574 247.585,47.497 246.100 C 47.420 244.615,47.357 245.830,47.357 248.800 M52.520 248.400 C 52.520 249.610,52.595 250.105,52.687 249.500 C 52.778 248.895,52.778 247.905,52.687 247.300 C 52.595 246.695,52.520 247.190,52.520 248.400 M342.940 251.200 C 342.940 253.070,343.009 253.835,343.093 252.900 C 343.177 251.965,343.177 250.435,343.093 249.500 C 343.009 248.565,342.940 249.330,342.940 251.200 M52.955 256.200 C 52.956 259.060,53.020 260.178,53.097 258.683 C 53.174 257.189,53.174 254.849,53.096 253.483 C 53.018 252.118,52.955 253.340,52.955 256.200 M333.293 256.000 C 333.293 256.770,333.375 257.085,333.476 256.700 C 333.576 256.315,333.576 255.685,333.476 255.300 C 333.375 254.915,333.293 255.230,333.293 256.000 M47.746 259.400 C 47.747 261.600,47.814 262.449,47.895 261.287 C 47.976 260.124,47.976 258.324,47.893 257.287 C 47.811 256.249,47.745 257.200,47.746 259.400 M228.033 258.500 C 228.125 258.555,228.740 259.050,229.400 259.600 L 230.600 260.600 229.630 259.500 C 229.097 258.895,228.482 258.400,228.264 258.400 C 228.045 258.400,227.942 258.445,228.033 258.500 M332.893 259.600 C 332.893 260.370,332.975 260.685,333.076 260.300 C 333.176 259.915,333.176 259.285,333.076 258.900 C 332.975 258.515,332.893 258.830,332.893 259.600 M342.509 260.000 C 342.509 260.990,342.587 261.395,342.682 260.900 C 342.778 260.405,342.778 259.595,342.682 259.100 C 342.587 258.605,342.509 259.010,342.509 260.000 M223.600 260.431 C 222.535 261.037,222.440 261.166,223.200 260.971 C 223.750 260.830,224.464 260.463,224.786 260.157 C 225.572 259.409,225.273 259.478,223.600 260.431 M232.417 264.120 C 232.408 264.296,232.679 264.979,233.020 265.639 C 233.579 266.719,233.579 266.964,233.024 268.119 L 232.408 269.400 233.204 268.456 C 233.642 267.936,233.992 267.306,233.983 267.056 C 233.963 266.511,232.441 263.658,232.417 264.120 M230.400 270.000 C 229.630 270.422,229.144 270.774,229.320 270.783 C 229.744 270.805,232.000 269.632,232.000 269.390 C 232.000 269.128,231.977 269.137,230.400 270.000 M163.633 272.551 C 164.042 272.921,167.200 274.395,167.200 274.216 C 167.200 273.989,164.181 272.400,163.749 272.400 C 163.594 272.400,163.542 272.468,163.633 272.551 M152.400 272.925 C 152.400 272.994,152.985 273.579,153.700 274.225 L 155.000 275.400 153.825 274.100 C 152.730 272.888,152.400 272.616,152.400 272.925 M175.300 275.494 C 176.345 275.576,178.055 275.576,179.100 275.494 C 180.145 275.412,179.290 275.344,177.200 275.344 C 175.110 275.344,174.255 275.412,175.300 275.494 M202.000 282.800 C 201.196 283.057,201.157 283.123,201.800 283.132 C 202.240 283.138,202.960 282.989,203.400 282.800 C 204.419 282.362,203.368 282.362,202.000 282.800 M198.200 283.600 C 197.122 283.874,197.102 283.906,198.000 283.913 C 198.550 283.917,199.450 283.776,200.000 283.600 C 201.344 283.169,199.892 283.169,198.200 283.600 M175.913 285.495 C 177.076 285.576,178.876 285.576,179.913 285.493 C 180.951 285.411,180.000 285.345,177.800 285.346 C 175.600 285.347,174.751 285.414,175.913 285.495 M307.944 304.419 C 304.785 307.730,301.466 310.869,300.568 311.396 C 299.671 311.923,298.681 312.671,298.368 313.059 C 297.945 313.585,298.209 313.519,299.400 312.804 C 302.068 311.201,305.238 308.469,306.499 306.686 C 307.155 305.759,309.152 303.515,310.937 301.700 C 312.722 299.885,314.071 298.400,313.935 298.400 C 313.800 298.400,311.104 301.109,307.944 304.419 M62.400 299.725 C 62.400 299.794,62.985 300.379,63.700 301.025 L 65.000 302.200 63.825 300.900 C 62.730 299.688,62.400 299.416,62.400 299.725 M76.000 301.000 C 76.746 301.770,77.447 302.400,77.557 302.400 C 77.667 302.400,77.146 301.770,76.400 301.000 C 75.654 300.230,74.953 299.600,74.843 299.600 C 74.733 299.600,75.254 300.230,76.000 301.000 M79.600 305.400 C 80.346 306.170,81.047 306.800,81.157 306.800 C 81.267 306.800,80.746 306.170,80.000 305.400 C 79.254 304.630,78.553 304.000,78.443 304.000 C 78.333 304.000,78.854 304.630,79.600 305.400 M71.200 309.400 C 72.395 310.610,73.463 311.600,73.573 311.600 C 73.683 311.600,72.795 310.610,71.600 309.400 C 70.405 308.190,69.337 307.200,69.227 307.200 C 69.117 307.200,70.005 308.190,71.200 309.400 M321.188 309.900 L 318.600 312.600 321.300 310.012 C 322.785 308.588,324.000 307.373,324.000 307.312 C 324.000 307.017,323.593 307.392,321.188 309.900 M83.067 309.400 C 84.123 310.896,84.933 311.608,87.144 312.982 C 89.456 314.418,88.925 313.623,86.499 312.017 C 85.455 311.325,84.651 310.671,84.713 310.564 C 84.775 310.457,84.239 309.882,83.523 309.285 L 82.220 308.200 83.067 309.400 M291.500 315.829 C 289.949 316.670,290.125 316.961,291.700 316.159 C 293.208 315.393,293.475 315.194,292.967 315.216 C 292.765 315.225,292.105 315.501,291.500 315.829 M93.200 316.196 C 93.200 316.470,95.649 317.684,95.832 317.501 C 95.919 317.414,95.362 317.044,94.595 316.678 C 93.828 316.312,93.200 316.095,93.200 316.196 M86.200 320.800 C 87.059 321.680,87.852 322.400,87.962 322.400 C 88.072 322.400,87.459 321.680,86.600 320.800 C 85.741 319.920,84.948 319.200,84.838 319.200 C 84.728 319.200,85.341 319.920,86.200 320.800 M283.775 320.900 L 282.600 322.200 283.900 321.025 C 284.615 320.379,285.200 319.794,285.200 319.725 C 285.200 319.416,284.870 319.688,283.775 320.900 M210.900 339.497 C 212.605 339.572,215.395 339.572,217.100 339.497 C 218.805 339.422,217.410 339.361,214.000 339.361 C 210.590 339.361,209.195 339.422,210.900 339.497 M157.700 349.076 C 158.085 349.176,158.715 349.176,159.100 349.076 C 159.485 348.975,159.170 348.893,158.400 348.893 C 157.630 348.893,157.315 348.975,157.700 349.076 M161.705 349.487 C 162.314 349.579,163.214 349.577,163.705 349.482 C 164.197 349.387,163.700 349.311,162.600 349.314 C 161.500 349.317,161.097 349.395,161.705 349.487 M237.900 349.882 C 238.395 349.978,239.205 349.978,239.700 349.882 C 240.195 349.787,239.790 349.709,238.800 349.709 C 237.810 349.709,237.405 349.787,237.900 349.882 M227.682 350.296 C 229.158 350.373,231.678 350.373,233.282 350.297 C 234.887 350.221,233.680 350.158,230.600 350.158 C 227.520 350.157,226.207 350.219,227.682 350.296 M176.500 351.076 C 176.885 351.176,177.515 351.176,177.900 351.076 C 178.285 350.975,177.970 350.893,177.200 350.893 C 176.430 350.893,176.115 350.975,176.500 351.076 M199.700 351.076 C 200.085 351.176,200.715 351.176,201.100 351.076 C 201.485 350.975,201.170 350.893,200.400 350.893 C 199.630 350.893,199.315 350.975,199.700 351.076 " stroke="none" fill="#7d7272" fill-rule="evenodd"></path></g></svg>