<?xml version="1.0" standalone="no"?>
<!DOCTYPE svg PUBLIC "-//W3C//DTD SVG 20010904//EN"
 "http://www.w3.org/TR/2001/REC-SVG-20010904/DTD/svg10.dtd">
<svg version="1.0" xmlns="http://www.w3.org/2000/svg"
 width="906.000000pt" height="906.000000pt" viewBox="0 0 906.000000 906.000000"
 preserveAspectRatio="xMidYMid meet">

<g transform="translate(0.000000,906.000000) scale(0.100000,-0.100000)"
fill="#102204" stroke="none">
<path d="M4964 8336 c-144 -38 -205 -77 -218 -141 -4 -17 -17 -42 -29 -57 -22
-26 -23 -26 -107 -18 -56 5 -154 3 -290 -7 -113 -9 -250 -17 -305 -18 -133 -3
-225 -27 -590 -155 -49 -17 -99 -39 -110 -49 -11 -11 -39 -28 -61 -40 -23 -11
-75 -46 -115 -79 -41 -32 -85 -65 -99 -75 -29 -20 -126 -140 -147 -182 -8 -16
-33 -51 -55 -77 -59 -72 -149 -257 -197 -408 -24 -74 -59 -182 -77 -240 -19
-58 -34 -116 -34 -128 0 -13 -13 -57 -30 -97 -39 -99 -60 -216 -60 -335 0
-112 11 -100 -115 -124 -133 -26 -350 -48 -540 -55 -144 -6 -208 -14 -320 -38
-217 -48 -302 -64 -408 -79 -53 -7 -114 -22 -135 -32 -20 -11 -67 -29 -104
-41 -41 -14 -83 -37 -110 -60 -24 -21 -75 -55 -115 -75 -76 -40 -173 -131
-173 -163 0 -10 -11 -38 -25 -62 -23 -39 -25 -54 -25 -161 l0 -118 43 -53 c23
-28 51 -64 61 -78 46 -63 116 -125 182 -161 62 -34 84 -40 175 -50 57 -6 129
-18 159 -28 72 -22 285 -21 388 2 120 26 121 25 66 -80 -20 -38 -45 -87 -56
-109 -11 -22 -36 -65 -54 -95 -86 -140 -173 -395 -195 -570 -24 -192 -41 -308
-52 -355 -8 -33 -11 -134 -10 -298 2 -227 4 -258 27 -345 13 -54 27 -119 31
-146 7 -49 32 -118 98 -271 19 -44 42 -101 51 -128 19 -51 116 -176 189 -244
25 -23 63 -66 85 -95 54 -71 151 -164 182 -173 45 -13 139 -79 208 -145 37
-36 110 -90 162 -121 99 -59 286 -148 355 -169 54 -17 168 -75 226 -115 27
-18 86 -46 131 -61 46 -15 152 -53 236 -85 178 -68 217 -76 417 -90 239 -16
345 -26 415 -40 43 -8 162 -12 345 -12 368 0 1141 20 1230 32 80 11 228 49
336 85 41 14 137 44 214 67 77 22 160 47 185 54 25 8 81 25 125 38 44 13 107
40 140 60 33 20 70 37 83 37 38 0 136 45 208 96 38 27 91 65 118 84 113 81
224 175 264 226 23 30 99 110 167 179 172 171 276 330 366 560 46 117 58 174
69 325 6 74 14 169 20 210 12 100 12 359 0 550 -31 471 -46 546 -189 948 -28
79 -51 157 -51 175 0 18 16 100 35 184 l34 152 -3 453 c-3 359 -7 476 -21 563
-24 160 -77 354 -133 490 -64 154 -122 307 -122 322 -2 57 -74 166 -199 298
-36 39 -81 93 -100 121 -31 46 -99 99 -185 146 -88 46 -268 128 -316 144 -30
9 -66 25 -80 34 -53 37 -190 99 -251 115 -35 9 -103 38 -150 65 -98 55 -172
77 -302 91 -105 11 -127 20 -127 56 0 21 -39 122 -82 210 -6 11 -33 34 -62 50
-50 27 -54 28 -226 30 -157 3 -184 0 -266 -21z m396 -126 c40 -11 41 -11 79
-131 23 -72 26 -105 11 -143 -12 -31 -34 -33 -79 -5 -21 13 -44 19 -60 16 -14
-3 -51 -1 -81 3 -51 8 -56 7 -76 -17 -26 -30 -44 -31 -148 -8 -95 21 -117 41
-136 120 -17 71 -5 99 53 125 95 42 345 65 437 40z m-802 -246 c23 -15 23 -15
5 -47 -18 -30 -25 -33 -102 -45 -70 -10 -88 -17 -110 -41 -16 -17 -42 -31 -66
-35 -22 -4 -70 -26 -107 -48 -36 -22 -89 -45 -116 -53 -28 -7 -71 -27 -96 -44
-53 -37 -88 -99 -161 -285 -25 -63 -58 -136 -75 -162 -16 -27 -30 -52 -30 -58
0 -5 -20 -42 -45 -81 -39 -63 -46 -82 -54 -157 -6 -54 -22 -118 -44 -174 -46
-118 -67 -234 -78 -439 -14 -256 -22 -327 -42 -356 -16 -24 -22 -26 -70 -21
-29 2 -89 20 -137 41 -159 70 -215 91 -280 105 -157 34 -278 66 -317 83 l-43
18 0 72 c0 50 6 89 21 125 11 29 29 91 41 138 11 47 31 118 44 159 13 41 31
107 40 145 19 86 65 210 109 291 18 33 38 78 45 100 7 22 20 49 30 60 9 11 26
36 38 56 69 115 304 325 494 441 122 75 173 99 291 142 149 54 243 68 494 76
123 3 226 10 230 14 11 10 62 -1 91 -20z m307 -92 c48 -19 102 -34 195 -54 26
-5 115 -7 207 -3 156 6 162 6 183 -15 16 -16 20 -28 15 -51 -6 -28 -4 -31 47
-53 30 -13 67 -35 84 -48 16 -14 48 -35 71 -48 24 -13 45 -32 49 -42 3 -10 31
-38 63 -62 69 -53 142 -132 187 -201 17 -28 39 -57 48 -64 30 -25 144 -255
174 -351 20 -64 32 -128 36 -195 4 -55 14 -131 23 -168 27 -123 0 -394 -58
-571 -16 -49 -32 -114 -35 -145 -9 -87 -89 -397 -131 -511 -14 -36 -31 -91
-39 -123 -21 -86 -62 -167 -90 -177 -33 -13 -136 7 -314 61 -68 20 -171 42
-255 54 -27 4 -89 22 -138 41 -48 19 -125 43 -172 54 -110 26 -307 104 -340
134 -26 24 -223 116 -248 116 -21 0 -182 56 -208 73 -13 8 -48 23 -78 32 -29
10 -62 26 -73 37 -11 11 -36 25 -56 33 -20 7 -73 34 -117 59 -44 25 -85 46
-91 46 -7 0 -39 20 -71 44 -33 24 -77 52 -98 61 l-38 18 6 181 c5 156 10 204
42 351 19 94 44 211 54 262 11 50 29 113 40 139 12 27 30 100 41 164 28 173
55 256 119 377 106 196 159 262 239 294 31 12 71 30 88 40 17 10 57 27 90 38
174 57 303 105 334 126 73 50 126 75 145 71 11 -2 43 -13 70 -24z m861 4 c59
7 112 -8 294 -81 150 -61 264 -95 347 -105 61 -6 81 -14 125 -46 29 -21 87
-56 128 -79 54 -29 82 -52 103 -83 29 -43 47 -55 97 -66 15 -3 34 -20 47 -43
12 -21 55 -74 95 -118 105 -115 191 -239 223 -320 15 -38 38 -91 51 -116 13
-25 28 -77 35 -115 6 -38 15 -79 20 -91 4 -12 13 -62 19 -110 7 -48 25 -131
40 -183 41 -136 54 -272 45 -465 -4 -88 -9 -245 -11 -350 -2 -188 -26 -509
-43 -595 -12 -60 -35 -75 -128 -86 -130 -14 -636 -11 -735 5 -64 10 -97 11
-128 3 -33 -8 -58 -6 -128 9 -157 35 -160 37 -188 81 l-26 41 31 78 c17 43 31
85 31 94 0 9 5 25 10 36 6 10 24 67 40 127 16 59 45 152 63 207 19 55 38 127
42 161 4 37 18 81 36 115 16 29 44 83 61 119 l32 65 1 415 1 415 -34 119 c-28
102 -41 129 -86 190 -29 39 -68 96 -86 126 -19 30 -69 109 -113 175 -69 106
-86 125 -149 168 -39 26 -98 73 -132 103 -33 31 -91 76 -128 100 -38 24 -68
46 -68 48 0 3 5 16 11 30 13 28 41 36 78 24 14 -5 48 -6 77 -2z m-3096 -1876
c30 -6 84 -17 120 -25 36 -7 103 -21 150 -31 77 -16 350 -113 418 -148 27 -14
128 -45 272 -85 77 -21 121 -43 175 -86 57 -46 220 -130 290 -150 32 -9 109
-41 170 -70 60 -30 173 -79 250 -110 77 -31 157 -67 177 -82 43 -29 112 -46
283 -68 82 -11 169 -31 275 -65 85 -27 181 -56 212 -65 45 -12 68 -26 101 -61
38 -39 52 -47 113 -60 135 -29 167 -34 218 -34 94 -1 205 -78 191 -133 -11
-44 -48 -67 -165 -103 -112 -34 -188 -73 -226 -116 -32 -35 -153 -109 -256
-154 -53 -24 -137 -66 -186 -93 -50 -28 -117 -57 -149 -65 -32 -8 -83 -22
-113 -30 -192 -53 -657 -39 -778 23 -23 12 -86 37 -140 55 -119 41 -219 83
-252 106 -14 9 -50 28 -80 42 -135 61 -348 223 -374 286 -29 69 -18 61 -324
245 -53 32 -106 67 -117 77 -20 19 -215 114 -304 150 -25 10 -98 32 -161 50
-63 18 -135 42 -160 52 -44 19 -79 29 -305 89 -107 28 -476 91 -720 123 -66 8
-190 25 -275 37 -109 15 -178 20 -235 15 -72 -5 -81 -4 -102 16 -65 60 3 156
142 201 44 14 98 28 120 32 22 4 87 20 145 37 58 16 125 34 150 39 79 17 133
31 220 57 67 21 104 26 175 25 172 -3 391 17 595 55 150 27 374 38 460 22z
m-1458 -624 c100 -19 219 -40 263 -46 126 -17 350 -60 470 -90 61 -15 128 -31
150 -35 46 -8 140 -58 148 -79 8 -20 -97 -63 -181 -76 -116 -17 -681 -59 -805
-60 -43 0 -132 11 -203 25 -69 14 -135 25 -147 25 -19 0 -86 20 -182 54 -33
12 -115 88 -115 108 0 7 -18 29 -40 49 -45 41 -51 73 -22 109 29 35 108 48
304 49 160 1 192 -2 360 -33z m1368 -429 c58 -18 130 -46 160 -62 30 -15 78
-36 106 -45 49 -17 118 -65 244 -170 30 -25 73 -59 95 -75 22 -16 56 -42 76
-59 20 -17 67 -53 105 -80 38 -27 101 -73 140 -103 40 -29 107 -68 149 -88 42
-19 102 -50 134 -69 31 -18 71 -37 89 -41 18 -4 67 -22 110 -40 77 -34 240
-78 407 -111 123 -24 358 -24 480 1 50 10 155 42 235 72 80 30 173 63 206 73
76 22 270 120 333 168 25 20 69 50 98 66 29 17 103 62 165 100 86 52 121 69
146 67 30 -2 69 9 345 95 105 33 111 33 200 24 51 -6 176 -13 279 -17 184 -6
300 3 473 38 56 11 48 16 105 -71 16 -25 30 -51 30 -58 0 -7 20 -69 44 -136
80 -219 91 -295 90 -636 0 -217 -4 -301 -13 -318 -7 -13 -17 -92 -22 -180 -11
-172 -25 -244 -75 -372 -78 -202 -219 -486 -252 -508 -14 -9 -46 -39 -71 -67
-116 -126 -281 -291 -334 -332 -32 -25 -94 -60 -138 -78 -104 -44 -195 -95
-255 -145 -64 -53 -188 -113 -292 -140 -53 -14 -101 -35 -130 -56 -75 -54
-101 -65 -176 -79 -137 -24 -242 -46 -296 -60 -104 -28 -255 -57 -355 -67
-111 -11 -158 -11 -1050 1 -609 9 -682 13 -808 45 -156 39 -278 66 -347 77
-52 8 -101 24 -160 54 -47 23 -101 46 -120 50 -138 29 -284 96 -405 185 -27
20 -106 67 -175 104 -162 87 -190 109 -304 241 -52 61 -122 134 -155 163 -41
36 -77 81 -114 145 -30 50 -69 110 -87 132 -17 22 -50 78 -72 125 -22 47 -65
133 -95 193 -73 146 -84 204 -84 482 0 370 23 469 197 823 52 106 94 199 94
208 0 8 16 45 35 81 19 36 35 72 35 78 0 7 7 18 15 25 8 7 45 72 81 145 36 73
73 140 82 148 22 19 144 52 247 67 177 25 225 28 335 25 98 -3 130 -8 220 -38z"/>
<path d="M2818 4288 c-90 -10 -126 -21 -135 -43 -10 -29 13 -448 27 -478 19
-39 75 -53 169 -39 40 5 80 17 89 25 35 36 55 351 27 444 -25 84 -61 103 -177
91z"/>
<path d="M5600 4272 c-8 -2 -25 -14 -37 -25 -22 -20 -22 -25 -23 -243 l0 -224
27 -17 c21 -14 53 -19 135 -21 l109 -4 33 35 c41 44 46 67 46 231 0 152 -16
223 -56 255 -23 18 -39 21 -123 19 -53 -1 -103 -3 -111 -6z"/>
<path d="M3262 3268 c-21 -21 -13 -62 22 -120 18 -31 36 -69 40 -84 10 -39 61
-120 105 -167 77 -82 344 -245 471 -288 63 -21 70 -21 265 -10 221 13 301 23
419 52 43 10 91 19 106 19 53 0 123 29 211 89 50 34 94 61 98 61 4 0 39 20 77
45 37 25 72 45 76 45 22 0 122 56 134 76 14 20 12 27 -15 85 -62 130 -115 166
-170 116 -24 -21 -158 -83 -331 -152 -36 -14 -82 -37 -103 -51 -74 -48 -259
-113 -389 -135 -101 -17 -153 -20 -293 -17 l-170 4 -83 42 c-45 24 -110 63
-143 87 -34 25 -67 45 -73 45 -20 0 -61 50 -121 150 -31 52 -64 101 -73 108
-20 15 -45 15 -60 0z"/>
</g>
</svg>
